<svg id="Layer_1" data-name="Layer 1" xmlns="http://www.w3.org/2000/svg" xmlns:xlink="http://www.w3.org/1999/xlink" viewBox="0 0 33 33"><defs><style>.cls-1{fill:url(#linear-gradient);}.cls-2{opacity:0.5;}.cls-3{fill:#fff;}</style><linearGradient id="linear-gradient" x1="1.5" y1="16.5" x2="31.5" y2="16.5" gradientUnits="userSpaceOnUse"><stop offset="0" stop-color="#fff" stop-opacity="0"/><stop offset="1" stop-color="#fff" stop-opacity="0.5"/></linearGradient></defs><path class="cls-1" d="M1.5,16.51a15,15,0,1,1,14.92,15A15,15,0,0,1,1.5,16.51Zm16.66,4.93v-.57c0-2,0-4,0-6a1.65,1.65,0,0,0-1.69-1.72H14.86a1.7,1.7,0,0,0-1.69,1.47,1.67,1.67,0,0,0,1.25,1.79l.42.12v.57c0,2,0,4,0,6a1.65,1.65,0,0,0,1.69,1.72c.56,0,1.11,0,1.67,0a1.66,1.66,0,0,0,.43-3.25ZM14.84,9.76a1.66,1.66,0,1,0,1.71-1.59A1.68,1.68,0,0,0,14.84,9.76Z"/><g class="cls-2"><path class="cls-3" d="M16.43,32h0a15.5,15.5,0,0,1,.12-31h0A15.26,15.26,0,0,1,27.47,5.57a15.52,15.52,0,0,1,4.53,11,15.27,15.27,0,0,1-4.57,10.91A15.51,15.51,0,0,1,16.43,32Zm.11-30a14.5,14.5,0,0,0-.12,29h0a14.54,14.54,0,0,0,10.3-4.23A14.27,14.27,0,0,0,31,16.57a14.51,14.51,0,0,0-4.24-10.3A14.31,14.31,0,0,0,16.55,2Zm.86,23.34h-.88a2.14,2.14,0,0,1-2.18-2.22c0-1.37,0-2.74,0-4.11V16.93l-.06,0a2.16,2.16,0,0,1-1.6-2.34,2.19,2.19,0,0,1,2.17-1.9h1.63a2.15,2.15,0,0,1,2.18,2.22c0,1.43,0,2.86,0,4.3v1.88l.12,0a2.18,2.18,0,0,1,1.55,2.32,2.22,2.22,0,0,1-2.12,1.9ZM15.66,13.66h-.8a1.19,1.19,0,0,0-1.19,1A1.16,1.16,0,0,0,14.56,16l.78.22V19c0,1.37,0,2.74,0,4.11a1.15,1.15,0,0,0,1.2,1.22c.55,0,1.09,0,1.64,0a1.18,1.18,0,0,0,1.15-1,1.16,1.16,0,0,0-.86-1.24l-.81-.26V19.19c0-1.43,0-2.87,0-4.3a1.15,1.15,0,0,0-1.2-1.22ZM16.5,12h-.07a2.18,2.18,0,0,1-2.09-2.26A2.13,2.13,0,0,1,15,8.25,2.16,2.16,0,1,1,16.5,12Zm0-3.33a1.17,1.17,0,0,0-.78.31,1.15,1.15,0,0,0-.37.79h0A1.18,1.18,0,0,0,16.46,11a1.2,1.2,0,0,0,1.2-1.11,1.17,1.17,0,0,0-1.13-1.22Z"/></g></svg>