<svg id="Layer_1" data-name="Layer 1" xmlns="http://www.w3.org/2000/svg" xmlns:xlink="http://www.w3.org/1999/xlink" viewBox="0 0 120 120"><defs><style>.cls-1{fill:url(#linear-gradient);}.cls-2{fill:#c4a4cd;}.cls-3,.cls-4,.cls-5,.cls-6,.cls-7{fill:none;stroke-miterlimit:10;}.cls-3{stroke:url(#linear-gradient-2);}.cls-4{stroke:url(#linear-gradient-3);}.cls-5{stroke:url(#linear-gradient-4);}.cls-6{stroke:url(#linear-gradient-5);}.cls-7{stroke:url(#linear-gradient-6);}</style><linearGradient id="linear-gradient" x1="110.69" y1="111.29" x2="11.69" y2="11.09" gradientUnits="userSpaceOnUse"><stop offset="0" stop-color="#fff" stop-opacity="0"/><stop offset="1" stop-color="#fff" stop-opacity="0.5"/></linearGradient><linearGradient id="linear-gradient-2" x1="0.89" y1="60" x2="119.11" y2="60" xlink:href="#linear-gradient"/><linearGradient id="linear-gradient-3" x1="18.6" y1="60.89" x2="66.28" y2="60.89" xlink:href="#linear-gradient"/><linearGradient id="linear-gradient-4" x1="67.25" y1="68.31" x2="101.5" y2="68.31" xlink:href="#linear-gradient"/><linearGradient id="linear-gradient-5" x1="34.89" y1="53.19" x2="49.27" y2="53.19" xlink:href="#linear-gradient"/><linearGradient id="linear-gradient-6" x1="77.05" y1="59.43" x2="92.55" y2="59.43" xlink:href="#linear-gradient"/></defs><path class="cls-1" d="M60,116.65H22.5c-10,0-17.63-5.77-20.42-15.41A18.59,18.59,0,0,1,1.4,96q0-36,0-72.07A20.47,20.47,0,0,1,22.1,3.36q37.89,0,75.78,0A20.46,20.46,0,0,1,118.59,24q0,36,0,72.07a20.47,20.47,0,0,1-20.7,20.61C85.26,116.67,72.63,116.65,60,116.65Z"/><path class="cls-2" d="M50,40.52c-.65-1.9-.85-4.34-2.17-5.5s-4-.22-5.68-.41c-1.26,0-2.17,0-3.08,0-1.09.05-2.36-.42-3.23.23s-.2,1.85-.46,2.78a5.05,5.05,0,0,1-.18.55q-4.49,13.55-9,27.09C23.9,72,21.65,78.79,19.33,85.52c-.53,1.52-.19,2,1.38,1.85a41.12,41.12,0,0,1,5.66,0c1.58.13,2.3-.42,2.77-1.94,1.08-3.52,2.38-7,3.56-10.48.29-.87.65-1.34,1.73-1.32,5,.08,9.9.06,14.84,0a1.61,1.61,0,0,1,1.8,1.3c1.23,3.54,2.64,7,3.78,10.61a2.25,2.25,0,0,0,2.68,1.81c2.08-.1,4.16,0,6.24,0,2.32,0,2.31,0,1.55-2.21Q57.64,62.83,50,40.52ZM36.37,64.81c-.92,0-1.14-.33-.88-1.18,2.07-6.85,4.12-13.72,6.27-20.85l6.83,22C44.4,64.8,40.39,64.78,36.37,64.81Z"/><path class="cls-2" d="M91.58,49.16c-7-2.33-14.88-.33-19,4.89-4.89,6.24-5.75,13.33-4,20.83,1.45,6.33,5,10.94,11.53,12.69a28,28,0,0,0,14.07-.08c4.1-1,4.08-1.07,4.08-5.31,0-.58,0-1.17,0-1.75.05-1-.1-1.5-1.3-1a18.61,18.61,0,0,1-7.2,1.47c-5.78.13-10.81-1.35-12.09-9.07-.23-1.41.13-1.82,1.55-1.77,2.86.1,5.72,0,9.21,0,3.14-.07,6.91.11,10.68-.29,1.12-.12,1.68-.5,1.74-1.59.07-1.55.19-3.11.17-4.66C100.9,57,96.89,50.92,91.58,49.16ZM92,62.86c-.17,1-.83,1-1.57,1H84.57v0c-1.94,0-3.89,0-5.83,0-.44,0-1,.28-1.15-.59-.5-3.86,3.69-8.41,7.74-8.37A7,7,0,0,1,92,62.86Z"/><path class="cls-3" d="M60,116.65H22.5c-10,0-17.63-5.77-20.42-15.41A18.59,18.59,0,0,1,1.4,96q0-36,0-72.07A20.47,20.47,0,0,1,22.1,3.36q37.89,0,75.78,0A20.46,20.46,0,0,1,118.59,24q0,36,0,72.07a20.47,20.47,0,0,1-20.7,20.61C85.26,116.67,72.63,116.65,60,116.65Z"/><path class="cls-4" d="M42.1,34.61c1.7.19,4.24-.86,5.68.41s1.52,3.6,2.17,5.5q7.69,22.31,15.37,44.62c.76,2.21.77,2.2-1.55,2.21-2.08,0-4.16-.08-6.24,0a2.25,2.25,0,0,1-2.68-1.81C53.71,82,52.3,78.49,51.07,75a1.61,1.61,0,0,0-1.8-1.3c-4.94,0-9.89.07-14.84,0-1.08,0-1.44.45-1.73,1.32-1.18,3.5-2.48,7-3.56,10.48C28.67,87,28,87.51,26.37,87.38a41.12,41.12,0,0,0-5.66,0c-1.57.1-1.91-.33-1.38-1.85C21.65,78.79,23.9,72,26.16,65.27q4.52-13.53,9-27.09a5.05,5.05,0,0,0,.18-.55c.26-.93-.35-2.19.46-2.78s2.14-.18,3.23-.23C39.93,34.57,40.84,34.61,42.1,34.61Z"/><path class="cls-5" d="M88.41,70.11c-3.49,0-6.35.07-9.21,0-1.42,0-1.78.36-1.55,1.77,1.28,7.72,6.31,9.2,12.09,9.07a18.61,18.61,0,0,0,7.2-1.47c1.2-.52,1.35,0,1.3,1,0,.58,0,1.17,0,1.75,0,4.24,0,4.31-4.08,5.31a28,28,0,0,1-14.07.08C73.59,85.82,70,81.21,68.55,74.88c-1.7-7.5-.84-14.59,4-20.83,4.1-5.22,12-7.22,19-4.89C96.89,50.92,100.9,57,101,63.57c0,1.55-.1,3.11-.17,4.66-.06,1.09-.62,1.47-1.74,1.59C95.32,70.22,91.55,70,88.41,70.11Z"/><path class="cls-6" d="M41.76,42.78l6.83,22c-4.19,0-8.2,0-12.22,0-.92,0-1.14-.33-.88-1.18C37.56,56.78,39.61,49.91,41.76,42.78Z"/><path class="cls-7" d="M84.57,63.91c-1.94,0-3.89,0-5.83,0-.44,0-1,.28-1.15-.59-.5-3.86,3.69-8.41,7.74-8.37A7,7,0,0,1,92,62.86c-.17,1-.83,1-1.57,1H84.57Z"/></svg>