<svg id="Layer_1" data-name="Layer 1" xmlns="http://www.w3.org/2000/svg" viewBox="0 0 120 120"><defs><style>.cls-1{fill:#371b51;}.cls-2{fill:#c4a4cd;}.cls-3{fill:#371b52;}</style></defs><path class="cls-1" d="M60,116.65H22.5c-10,0-17.63-5.77-20.42-15.41A18.59,18.59,0,0,1,1.4,96q0-36,0-72.07A20.47,20.47,0,0,1,22.1,3.36q37.89,0,75.78,0A20.46,20.46,0,0,1,118.59,24q0,36,0,72.07a20.47,20.47,0,0,1-20.7,20.61C85.26,116.67,72.63,116.65,60,116.65Z"/><path class="cls-2" d="M42.1,34.61c1.7.19,4.24-.86,5.68.41s1.52,3.6,2.17,5.5q7.69,22.31,15.37,44.62c.76,2.21.77,2.2-1.55,2.21-2.08,0-4.16-.08-6.24,0a2.25,2.25,0,0,1-2.68-1.81C53.71,82,52.3,78.49,51.07,75a1.61,1.61,0,0,0-1.8-1.3c-4.94,0-9.89.07-14.84,0-1.08,0-1.44.45-1.73,1.32-1.18,3.5-2.48,7-3.56,10.48C28.67,87,28,87.51,26.37,87.38a41.12,41.12,0,0,0-5.66,0c-1.57.1-1.91-.33-1.38-1.85C21.65,78.79,23.9,72,26.16,65.27q4.52-13.53,9-27.09a5.05,5.05,0,0,0,.18-.55c.26-.93-.35-2.19.46-2.78s2.14-.18,3.23-.23C39.93,34.57,40.84,34.61,42.1,34.61Z"/><path class="cls-2" d="M88.41,70.11c-3.49,0-6.35.07-9.21,0-1.42,0-1.78.36-1.55,1.77,1.28,7.72,6.31,9.2,12.09,9.07a18.61,18.61,0,0,0,7.2-1.47c1.2-.52,1.35,0,1.3,1,0,.58,0,1.17,0,1.75,0,4.24,0,4.31-4.08,5.31a28,28,0,0,1-14.07.08C73.59,85.82,70,81.21,68.55,74.88c-1.7-7.5-.84-14.59,4-20.83,4.1-5.22,12-7.22,19-4.89C96.89,50.92,100.9,57,101,63.57c0,1.55-.1,3.11-.17,4.66-.06,1.09-.62,1.47-1.74,1.59C95.32,70.22,91.55,70,88.41,70.11Z"/><path class="cls-3" d="M41.76,42.78l6.83,22c-4.19,0-8.2,0-12.22,0-.92,0-1.14-.33-.88-1.18C37.56,56.78,39.61,49.91,41.76,42.78Z"/><path class="cls-3" d="M84.57,63.91c-1.94,0-3.89,0-5.83,0-.44,0-1,.28-1.15-.59-.5-3.86,3.69-8.41,7.74-8.37A7,7,0,0,1,92,62.86c-.17,1-.83,1-1.57,1H84.57Z"/></svg>