<svg id="Layer_1" data-name="Layer 1" xmlns="http://www.w3.org/2000/svg" xmlns:xlink="http://www.w3.org/1999/xlink" viewBox="0 0 120 120"><defs><style>.cls-1{fill:url(#linear-gradient);}.cls-2{fill:url(#linear-gradient-2);}.cls-3{fill:url(#linear-gradient-3);}.cls-4{fill:url(#linear-gradient-4);}.cls-5{fill:url(#linear-gradient-5);}.cls-6{fill:url(#linear-gradient-6);}.cls-7{fill:#f89a1d;}</style><linearGradient id="linear-gradient" x1="6.36" y1="9.01" x2="112.7" y2="110.05" gradientUnits="userSpaceOnUse"><stop offset="0" stop-color="#fff" stop-opacity="0"/><stop offset="1" stop-color="#fff" stop-opacity="0.5"/></linearGradient><linearGradient id="linear-gradient-2" x1="-1.81" y1="17.61" x2="104.52" y2="118.65" xlink:href="#linear-gradient"/><linearGradient id="linear-gradient-3" x1="15.96" y1="-1.09" x2="122.29" y2="99.95" xlink:href="#linear-gradient"/><linearGradient id="linear-gradient-4" x1="31.03" y1="-16.96" x2="137.37" y2="84.08" xlink:href="#linear-gradient"/><linearGradient id="linear-gradient-5" x1="4.33" y1="11.14" x2="110.67" y2="112.18" xlink:href="#linear-gradient"/><linearGradient id="linear-gradient-6" x1="113.95" y1="112.2" x2="9.13" y2="10.78" xlink:href="#linear-gradient"/></defs><path class="cls-1" d="M59.37,118.52H21.9A21.7,21.7,0,0,1,0,96.56C0,71.83,0,47.23,0,23.42A21.71,21.71,0,0,1,21.91,1.49H98a21.62,21.62,0,0,1,22,22c0,24.71,0,49.25,0,73a21.64,21.64,0,0,1-22,22ZM36.86,3H21.92A20.26,20.26,0,0,0,1.49,23.42c0,23.81,0,48.41,0,73.14A20.24,20.24,0,0,0,21.9,117c23.63,0,48.52,0,76.09,0a20.1,20.1,0,0,0,20.52-20.55c0-23.7,0-48.24,0-72.95A20.1,20.1,0,0,0,98,3H36.86Z"/><path class="cls-2" d="M63.78,84.55a2.51,2.51,0,0,1-2.63-2c-.47-1.44-1-2.89-1.48-4.3-.61-1.73-1.23-3.52-1.8-5.3-.19-.62-.31-.71-1-.7-5,0-10.32,0-15.74,0-.69,0-.88.13-1.1.83-.39,1.27-.81,2.55-1.21,3.79-.61,1.86-1.24,3.78-1.78,5.68a2.49,2.49,0,0,1-2.82,2c-2.62-.07-5-.07-7.36,0a2.28,2.28,0,0,1-2-.61,2.33,2.33,0,0,1,0-2.12C29,70,33.21,57.93,37.25,46.28l3.07-8.84a9.68,9.68,0,0,0,.81-4,2.12,2.12,0,0,1,.47-1.75,2.49,2.49,0,0,1,2-.57c1.23.05,2.5,0,3.73,0,1.06,0,2.13,0,3.19,0,1.23,0,2.51,0,3.75,0a2.32,2.32,0,0,1,2.6,1.77c6.07,17.25,11.74,33.29,17.35,49a1.74,1.74,0,0,1-2,2.67c-2.47-.06-5.38-.09-8.29,0ZM56.92,70.73a2.16,2.16,0,0,1,2.36,1.74c.56,1.76,1.19,3.54,1.79,5.26.5,1.41,1,2.88,1.48,4.33.28.85.54,1,1.35,1,2.94-.11,5.88-.07,8.37,0A3.74,3.74,0,0,0,73,83a2.4,2.4,0,0,0-.16-.65c-5.62-15.73-11.29-31.76-17.36-49-.24-.69-.42-.81-1.14-.78-1.28,0-2.57,0-3.82,0H47.31c-1.24,0-2.53,0-3.8,0-.65,0-.81.08-.84.12a.92.92,0,0,0-.07.59,11,11,0,0,1-.88,4.65l-3.07,8.84c-4,11.65-8.22,23.7-12.38,35.54a2.53,2.53,0,0,0-.18.72,3.76,3.76,0,0,0,.74,0c2.37-.07,4.8-.07,7.45,0,.88,0,1.12-.15,1.35-1,.55-1.93,1.19-3.86,1.8-5.73.4-1.23.82-2.51,1.21-3.77a2.3,2.3,0,0,1,2.53-1.87c5.4.07,10.75,0,15.71,0Z"/><path class="cls-3" d="M80.63,84.61A2.44,2.44,0,0,1,78.88,84a2.64,2.64,0,0,1-.63-2c0-4.41,0-8.88,0-13.21V59.31c0-4.26,0-8.67,0-13a2.81,2.81,0,0,1,.63-2.13,2.66,2.66,0,0,1,2-.55c2.59.14,5.25.08,7.53,0a2.41,2.41,0,0,1,1.83.51,2.31,2.31,0,0,1,.56,1.74c0,11.18,0,23.1,0,36.46a2.32,2.32,0,0,1-.55,1.72,2.29,2.29,0,0,1-1.69.52c-3-.07-5.49-.07-7.74,0Zm0-39.5a1.1,1.1,0,0,0-.69.14c-.13.12-.19.48-.18,1,0,4.33,0,8.74,0,13v9.5c0,4.34,0,8.82,0,13.23,0,.61.1.84.18.93a1.37,1.37,0,0,0,.87.15c2.27-.08,4.76-.08,7.81,0,.5,0,.61-.07.62-.08s.11-.13.11-.66c0-13.37,0-25.3,0-36.48,0-.54-.1-.66-.11-.67s-.16-.11-.76-.09c-2.31.06-5,.12-7.64,0Z"/><path class="cls-4" d="M84.74,41h-.13a6.77,6.77,0,0,1-6.83-7,6.83,6.83,0,0,1,7-6.95h0a6.57,6.57,0,0,1,4.76,1.87,7.13,7.13,0,0,1,1.95,5.15,7.12,7.12,0,0,1-2,5.11A6.68,6.68,0,0,1,84.74,41Zm0-12.5h0A5.38,5.38,0,0,0,79.26,34a5.28,5.28,0,0,0,5.38,5.53,5.15,5.15,0,0,0,3.77-1.42A5.65,5.65,0,0,0,90,34.07h0A5.59,5.59,0,0,0,88.49,30,5.11,5.11,0,0,0,84.78,28.54Z"/><path class="cls-5" d="M43.66,62.27a1.63,1.63,0,0,1-1.34-.55,1.59,1.59,0,0,1,0-1.54l.06-.18c1.79-6,3.73-12.33,6-18.71l.75-2.1,7.1,23.06H51.86c-2.8,0-5.44,0-8.12,0Zm0-1.48h.08c2.69,0,5.34,0,8.14,0h2.35L49,43.9c-2,5.64-3.67,11.24-5.26,16.53,0,.07,0,.15-.08.23A.93.93,0,0,1,43.64,60.79Z"/><path class="cls-6" d="M60.05,2.22q19,0,38,0a20.89,20.89,0,0,1,21.24,21.3q0,36.48,0,73A20.9,20.9,0,0,1,98,117.77q-38,0-76.09,0A20.9,20.9,0,0,1,.75,96.56q0-36.57,0-73.14A20.91,20.91,0,0,1,21.92,2.23Q41,2.2,60.05,2.22Z"/><path class="cls-7" d="M79,64.07c0-5.92,0-11.84,0-17.77,0-1.38.31-2,1.86-1.93,2.52.13,5.05.09,7.58,0,1.15,0,1.64.23,1.63,1.51q-.06,18.23,0,36.47c0,1.13-.36,1.51-1.49,1.49-2.59-.07-5.18-.08-7.77,0C79.41,83.91,79,83.37,79,82,79,76.05,79,70.06,79,64.07Z"/><path class="cls-7" d="M90.75,34.07a5.91,5.91,0,0,1-6.13,6.22A6,6,0,0,1,78.52,34a6.1,6.1,0,0,1,6.21-6.21C88.31,27.78,90.77,30.34,90.75,34.07Z"/><path class="cls-7" d="M73.49,82.12q-8.73-24.49-17.35-49a1.6,1.6,0,0,0-1.87-1.27c-1.79.07-3.58,0-5.37,0s-3.58,0-5.36,0c-1.14,0-1.79.23-1.67,1.51a11.39,11.39,0,0,1-1,4.67C35.81,52.7,30.73,67.39,25.57,82.06c-.54,1.54-.12,1.78,1.29,1.74q3.69-.1,7.4,0a1.77,1.77,0,0,0,2.08-1.5c.92-3.19,2-6.32,3-9.49a1.6,1.6,0,0,1,1.81-1.35c5.24.07,10.48.05,15.73,0a1.46,1.46,0,0,1,1.69,1.21c1,3.22,2.22,6.39,3.27,9.6a1.82,1.82,0,0,0,2.08,1.52c2.77-.1,5.55-.07,8.32,0C73.59,83.83,74,83.56,73.49,82.12ZM43.73,61.53c-1.29,0-.84-.77-.68-1.31,1.86-6.22,3.76-12.42,6-18.68,2,6.56,4,13.12,6.14,20C51.23,61.51,47.48,61.48,43.73,61.53Z"/></svg>