<svg id="Layer_1" data-name="Layer 1" xmlns="http://www.w3.org/2000/svg" xmlns:xlink="http://www.w3.org/1999/xlink" viewBox="0 0 120 120"><defs><style>.cls-1{fill:url(#linear-gradient);}</style><linearGradient id="linear-gradient" x1="117.33" y1="103.92" x2="22.64" y2="34.53" gradientUnits="userSpaceOnUse"><stop offset="0" stop-color="#fff" stop-opacity="0"/><stop offset="1" stop-color="#fff" stop-opacity="0.5"/></linearGradient></defs><path class="cls-1" d="M119.56,53.74c-1.63-12.81-8.08-23.08-18.66-30.56a43.72,43.72,0,0,0-32.5-7.74A43.67,43.67,0,0,0,42.14,29.36a2.36,2.36,0,0,1-2.28.87A29.35,29.35,0,0,0,26,31.8C3.78,39.36-6.38,63.57,4.21,84.49c6,11.83,16,18.61,29.21,20.14,7.59.89,15.25.13,21.45.34,7.29,0,13.17,0,19.05,0,10.65,0,20.38-2.85,28.71-9.56C115.94,84.71,121.71,70.65,119.56,53.74ZM10.89,81.23a30,30,0,0,1,21.16-43.3,28.83,28.83,0,0,1,20.89,3.81c8,4.85,15.92,9.89,23.86,14.87a3.66,3.66,0,0,1,1.85,4.3,3.58,3.58,0,0,1-3.37,2.78,4.92,4.92,0,0,1-3.12-1.09C64.86,58,57.57,53.42,50.24,48.88c-6.64-4.12-13.66-5.19-21.1-2.41-9.22,3.45-15.36,14-13.89,23.73S22.93,87,32.69,89.41a16.57,16.57,0,0,0,7.25.34,1.74,1.74,0,0,1,1.88.43,45.89,45.89,0,0,0,5.76,5.38C33.89,100.93,17.58,94.45,10.89,81.23Zm81,12.19c-16.14,7.84-34.16,4.1-45.78-9.56-3.8-4.48-7.48-9-11.19-13.61-1.82-2.22-1.45-4.88.77-6.09,1.74-.94,3.6-.46,5.11,1.38,3.78,4.58,7.41,9.29,11.35,13.72C60.52,88.67,71,92.13,83.11,88.75c11.78-3.28,19.13-11.44,21.41-23.42A29.76,29.76,0,0,0,82.53,31a29.44,29.44,0,0,0-24,4c-.5.32-.92.87-1.66.41A35.37,35.37,0,0,0,50,32.13,35.12,35.12,0,0,1,69.25,22.9C82.93,21,94.51,25.31,103.64,35.74,119.4,53.77,113.43,83,91.92,93.42Z"/></svg>