<svg id="Layer_1" data-name="Layer 1" xmlns="http://www.w3.org/2000/svg" xmlns:xlink="http://www.w3.org/1999/xlink" viewBox="0 0 120 120"><defs><style>.cls-1{fill:url(#linear-gradient);}.cls-2{fill:#f05123;}.cls-3{fill:url(#linear-gradient-2);}.cls-4{fill:#47ba7b;}.cls-5{fill:#42b8ea;}.cls-10,.cls-6,.cls-7,.cls-8,.cls-9{fill:none;stroke-miterlimit:10;}.cls-6{stroke:url(#linear-gradient-3);}.cls-7{stroke:url(#linear-gradient-4);}.cls-8{stroke:url(#linear-gradient-5);}.cls-9{stroke:url(#linear-gradient-6);}.cls-10{stroke:url(#linear-gradient-7);}</style><linearGradient id="linear-gradient" x1="119.05" y1="104.73" x2="48.27" y2="-4.7" gradientUnits="userSpaceOnUse"><stop offset="0" stop-color="#fff" stop-opacity="0"/><stop offset="1" stop-color="#fff" stop-opacity="0.5"/></linearGradient><linearGradient id="linear-gradient-2" x1="87" y1="125.46" x2="16.22" y2="16.03" xlink:href="#linear-gradient"/><linearGradient id="linear-gradient-3" x1="37.38" y1="20.36" x2="100.27" y2="20.36" xlink:href="#linear-gradient"/><linearGradient id="linear-gradient-4" x1="19.42" y1="20.19" x2="60.57" y2="20.19" xlink:href="#linear-gradient"/><linearGradient id="linear-gradient-5" x1="19.7" y1="60.23" x2="61.04" y2="60.23" xlink:href="#linear-gradient"/><linearGradient id="linear-gradient-6" x1="19.73" y1="99.91" x2="60.74" y2="99.91" xlink:href="#linear-gradient"/><linearGradient id="linear-gradient-7" x1="59.69" y1="59.93" x2="100.58" y2="59.93" xlink:href="#linear-gradient"/></defs><path class="cls-1" d="M60,.08c6.91,0,13.82-.19,20.73,0,9.87.29,18.34,8.65,19,18A20.07,20.07,0,0,1,82.48,39.79a6.51,6.51,0,0,1-2.13.74,26,26,0,0,1-4.41.12c-5.13,0-10.26.15-15.39,0h-.72c-6.66.12-13.31,0-20,0a2.69,2.69,0,0,1-1.93-.53c.35-1.38,1.53-1,2.41-1,5.23-.06,10.47,0,15.71,0,3.32,0,3.32,0,3.32-3.25q0-16.37,0-32.74C59.4,2.08,59.2,1,60,.08Z"/><path class="cls-2" d="M60,.08q0,19.06.07,38.11c0,1.25-.43,1.58-1.62,1.57-6.17,0-12.33,0-18.49,0-.72,0-1.5-.31-2.12.33a.6.6,0,0,1-.93.08c-.67-.79-1.69-.69-2.55-.94A20,20,0,0,1,19.93,18.92c.29-8.61,7-16.54,15.62-18.44A16.31,16.31,0,0,1,38.88.07C45.92.05,53,.07,60,.08Z"/><path class="cls-3" d="M36.91,40.13l.93-.08L60,40.16a2.89,2.89,0,0,1,.54,2.29c0,6.83,0,13.66,0,20.49a15.28,15.28,0,0,0-.34,4.42c-.06,4.16.15,8.32-.11,12.47a3.35,3.35,0,0,1-2.47.57c-6.12,0-12.25,0-18.37,0-.82-.16-1.75.07-2.4-.66-6.53-1.52-11.61-5-14.61-11.1A19.94,19.94,0,0,1,36,40.43,8.93,8.93,0,0,0,36.91,40.13Z"/><path class="cls-4" d="M39,79.88l21-.06c.51.6.25,1.31.25,2,0,6.26,0,12.52.06,18.78-.5,6.12-2.83,11.36-7.82,15.1-6.49,4.87-13.63,5.71-20.91,2.17-7.11-3.45-10.84-9.35-11.25-17.39A20.08,20.08,0,0,1,36.78,80.13C37.48,79.79,38.26,80.17,39,79.88Z"/><path class="cls-5" d="M76.25,40.11,80.63,40a3.35,3.35,0,0,1,1.83,0c9.73,1.29,17.33,9.32,17.61,18.61.32,10.58-6.24,19.24-16.35,21a19.8,19.8,0,0,1-23-14.93,3.62,3.62,0,0,0-.33-.65c-.32-.39-.15-.84-.19-1.27,0-2.27,0-4.55,0-6.82,1.38-7.5,5.92-12.33,12.8-15.2C74,40.32,75.2,40.52,76.25,40.11Z"/><path class="cls-6" d="M60,.08c6.91,0,13.82-.19,20.73,0,9.87.29,18.34,8.65,19,18A20.07,20.07,0,0,1,82.48,39.79a6.51,6.51,0,0,1-2.13.74,26,26,0,0,1-4.41.12c-5.13,0-10.26.15-15.39,0h-.72c-6.66.12-13.31,0-20,0a2.69,2.69,0,0,1-1.93-.53c.35-1.38,1.53-1,2.41-1,5.23-.06,10.47,0,15.71,0,3.32,0,3.32,0,3.32-3.25q0-16.37,0-32.74C59.4,2.08,59.2,1,60,.08Z"/><path class="cls-7" d="M60,.08q0,19.06.07,38.11c0,1.25-.43,1.58-1.62,1.57-6.17,0-12.33,0-18.49,0-.72,0-1.5-.31-2.12.33a.6.6,0,0,1-.93.08c-.67-.79-1.69-.69-2.55-.94A20,20,0,0,1,19.93,18.92c.29-8.61,7-16.54,15.62-18.44A16.31,16.31,0,0,1,38.88.07C45.92.05,53,.07,60,.08Z"/><path class="cls-8" d="M36.91,40.13l.93-.08L60,40.16a2.89,2.89,0,0,1,.54,2.29c0,6.83,0,13.66,0,20.49a15.28,15.28,0,0,0-.34,4.42c-.06,4.16.15,8.32-.11,12.47a3.35,3.35,0,0,1-2.47.57c-6.12,0-12.25,0-18.37,0-.82-.16-1.75.07-2.4-.66-6.53-1.52-11.61-5-14.61-11.1A19.94,19.94,0,0,1,36,40.43,8.93,8.93,0,0,0,36.91,40.13Z"/><path class="cls-9" d="M39,79.88l21-.06c.51.6.25,1.31.25,2,0,6.26,0,12.52.06,18.78-.5,6.12-2.83,11.36-7.82,15.1-6.49,4.87-13.63,5.71-20.91,2.17-7.11-3.45-10.84-9.35-11.25-17.39A20.08,20.08,0,0,1,36.78,80.13C37.48,79.79,38.26,80.17,39,79.88Z"/><path class="cls-10" d="M76.25,40.11,80.63,40a3.35,3.35,0,0,1,1.83,0c9.73,1.29,17.33,9.32,17.61,18.61.32,10.58-6.24,19.24-16.35,21a19.8,19.8,0,0,1-23-14.93,3.62,3.62,0,0,0-.33-.65c-.32-.39-.15-.84-.19-1.27,0-2.27,0-4.55,0-6.82,1.38-7.5,5.92-12.33,12.8-15.2C74,40.32,75.2,40.52,76.25,40.11Z"/></svg>