<svg id="Layer_1" data-name="Layer 1" xmlns="http://www.w3.org/2000/svg" xmlns:xlink="http://www.w3.org/1999/xlink" viewBox="0 0 1284.39 172.12"><defs><style>.cls-1{fill:url(#linear-gradient);}.cls-2{fill:url(#linear-gradient-2);}.cls-3{fill:url(#linear-gradient-3);}.cls-4{fill:url(#linear-gradient-4);}.cls-5{fill:url(#linear-gradient-5);}.cls-6{fill:url(#linear-gradient-6);}.cls-7{fill:url(#linear-gradient-7);}.cls-8{fill:url(#linear-gradient-8);}.cls-9{fill:url(#linear-gradient-9);}.cls-10{fill:url(#linear-gradient-10);}.cls-11{fill:url(#linear-gradient-11);}.cls-12{fill:url(#linear-gradient-12);}.cls-13{fill:url(#linear-gradient-13);}.cls-14{fill:url(#linear-gradient-14);}.cls-15{fill:url(#linear-gradient-15);}.cls-16{fill:url(#linear-gradient-16);}.cls-17{fill:url(#linear-gradient-17);}.cls-18{fill:url(#linear-gradient-18);}.cls-19{fill:url(#linear-gradient-19);}.cls-20{fill:url(#linear-gradient-20);}.cls-21{fill:url(#linear-gradient-21);}.cls-22{fill:url(#linear-gradient-22);}.cls-23{fill:url(#linear-gradient-23);}.cls-24{fill:url(#linear-gradient-24);}.cls-25{fill:url(#linear-gradient-25);}.cls-26{fill:url(#linear-gradient-26);}.cls-27{fill:url(#linear-gradient-27);}.cls-28{fill:url(#linear-gradient-28);}.cls-29{fill:url(#linear-gradient-29);}.cls-30{fill:url(#linear-gradient-30);}</style><linearGradient id="linear-gradient" x1="1293.61" y1="217.63" x2="19.04" y2="66.49" gradientUnits="userSpaceOnUse"><stop offset="0" stop-color="#fff" stop-opacity="0"/><stop offset="1" stop-color="#fff" stop-opacity="0.5"/></linearGradient><linearGradient id="linear-gradient-2" x1="1294.98" y1="206.04" x2="20.42" y2="54.9" xlink:href="#linear-gradient"/><linearGradient id="linear-gradient-3" x1="1293.85" y1="215.57" x2="19.29" y2="64.43" xlink:href="#linear-gradient"/><linearGradient id="linear-gradient-4" x1="1294.78" y1="207.75" x2="20.22" y2="56.62" xlink:href="#linear-gradient"/><linearGradient id="linear-gradient-5" x1="1295.94" y1="197.96" x2="21.38" y2="46.83" xlink:href="#linear-gradient"/><linearGradient id="linear-gradient-6" x1="1298.9" y1="172.96" x2="24.34" y2="21.83" xlink:href="#linear-gradient"/><linearGradient id="linear-gradient-7" x1="1300.28" y1="161.35" x2="25.72" y2="10.21" xlink:href="#linear-gradient"/><linearGradient id="linear-gradient-8" x1="1300.59" y1="158.74" x2="26.03" y2="7.61" xlink:href="#linear-gradient"/><linearGradient id="linear-gradient-9" x1="1303.52" y1="134.03" x2="28.96" y2="-17.1" xlink:href="#linear-gradient"/><linearGradient id="linear-gradient-10" x1="1304.69" y1="124.2" x2="30.12" y2="-26.94" xlink:href="#linear-gradient"/><linearGradient id="linear-gradient-11" x1="1301.51" y1="151.02" x2="26.94" y2="-0.12" xlink:href="#linear-gradient"/><linearGradient id="linear-gradient-12" x1="1305.06" y1="121.04" x2="30.5" y2="-30.09" xlink:href="#linear-gradient"/><linearGradient id="linear-gradient-13" x1="1307.99" y1="96.34" x2="33.43" y2="-54.8" xlink:href="#linear-gradient"/><linearGradient id="linear-gradient-14" x1="1307.49" y1="100.58" x2="32.92" y2="-50.55" xlink:href="#linear-gradient"/><linearGradient id="linear-gradient-15" x1="1308.61" y1="91.15" x2="34.04" y2="-59.99" xlink:href="#linear-gradient"/><linearGradient id="linear-gradient-16" x1="100.39" y1="76.09" x2="0.16" y2="64.21" xlink:href="#linear-gradient"/><linearGradient id="linear-gradient-17" x1="144.47" y1="69.67" x2="107.61" y2="65.3" xlink:href="#linear-gradient"/><linearGradient id="linear-gradient-18" x1="202.74" y1="86.19" x2="149.82" y2="79.91" xlink:href="#linear-gradient"/><linearGradient id="linear-gradient-19" x1="291.76" y1="88.81" x2="210.37" y2="79.16" xlink:href="#linear-gradient"/><linearGradient id="linear-gradient-20" x1="388.57" y1="90.43" x2="299.72" y2="79.9" xlink:href="#linear-gradient"/><linearGradient id="linear-gradient-21" x1="513.54" y1="79.9" x2="425.96" y2="69.52" xlink:href="#linear-gradient"/><linearGradient id="linear-gradient-22" x1="609.23" y1="79.4" x2="517.24" y2="68.5" xlink:href="#linear-gradient"/><linearGradient id="linear-gradient-23" x1="705.43" y1="88.11" x2="615.82" y2="77.48" xlink:href="#linear-gradient"/><linearGradient id="linear-gradient-24" x1="804.82" y1="74.84" x2="715.2" y2="64.21" xlink:href="#linear-gradient"/><linearGradient id="linear-gradient-25" x1="844.35" y1="69.67" x2="807.5" y2="65.3" xlink:href="#linear-gradient"/><linearGradient id="linear-gradient-26" x1="927.55" y1="106.68" x2="838.24" y2="96.09" xlink:href="#linear-gradient"/><linearGradient id="linear-gradient-27" x1="1027.81" y1="88.11" x2="938.2" y2="77.48" xlink:href="#linear-gradient"/><linearGradient id="linear-gradient-28" x1="1127.2" y1="74.84" x2="1037.59" y2="64.21" xlink:href="#linear-gradient"/><linearGradient id="linear-gradient-29" x1="1186.08" y1="86.19" x2="1133.16" y2="79.91" xlink:href="#linear-gradient"/><linearGradient id="linear-gradient-30" x1="1283.49" y1="88.11" x2="1193.87" y2="77.48" xlink:href="#linear-gradient"/></defs><path class="cls-1" d="M28.7,22l27.35,80.88L83.54,22h21.85L69.21,124.11H43L6.85,22Z"/><path class="cls-2" d="M117.54,12.91a14.91,14.91,0,0,1,18.23,0,10.3,10.3,0,0,1,3.48,8,10.11,10.11,0,0,1-3.48,7.89,14.91,14.91,0,0,1-18.23,0,10.13,10.13,0,0,1-3.47-7.89A10.32,10.32,0,0,1,117.54,12.91Zm19.25,31v80.16H116.38V44Z"/><path class="cls-3" d="M187.57,47.21a31.46,31.46,0,0,1,16.5-4.42V64.64h-5.93q-22.44,0-22.43,20.84v38.63h-20.4V44h20.4V59.29A33.51,33.51,0,0,1,187.57,47.21Z"/><path class="cls-4" d="M290,87.94H231.27q.43,10.71,5.79,15.77a18.6,18.6,0,0,0,13.31,5.07,19.26,19.26,0,0,0,11.79-3.48,15.36,15.36,0,0,0,6-9.4h21.56a34.55,34.55,0,0,1-6.8,15,35.59,35.59,0,0,1-13.39,10.41,45.77,45.77,0,0,1-39-1.23,34.94,34.94,0,0,1-14.18-14.25Q211.3,96.63,211.3,84t5.07-21.92a34.47,34.47,0,0,1,14.18-14.25,43.14,43.14,0,0,1,20.83-4.92,42.25,42.25,0,0,1,20.77,4.92,34.67,34.67,0,0,1,13.74,13.53A39.26,39.26,0,0,1,290.74,81,38.87,38.87,0,0,1,290,87.94Zm-25-23.88A19.64,19.64,0,0,0,251.38,59a20.08,20.08,0,0,0-13.89,5.06q-5.64,5.07-6.22,14.91h38.92Q270.63,69.13,265.06,64.06Z"/><path class="cls-5" d="M375.1,51.91q8.25,9.12,8.25,25.61v46.59H363.09V79.84q0-9.56-4.92-14.84t-13.46-5.28q-8.68,0-13.89,5.65t-5.21,16.2v42.54h-20.4V44h20.4V60A25.55,25.55,0,0,1,336.1,47.35,31.17,31.17,0,0,1,353,42.79Q366.85,42.79,375.1,51.91Z"/><path class="cls-6" d="M504.67,80.2a24.86,24.86,0,0,1,5.57,16.13q0,12.89-8.61,20.33t-25,7.45H432.83V22h43q15.48,0,23.81,6.8t8.32,19.1q0,9.54-5,15.62a23.12,23.12,0,0,1-13.09,8A24.83,24.83,0,0,1,504.67,80.2ZM453.23,64.79h18.38q7.67,0,11.65-3.4t4-9.77q0-6.36-3.9-9.84t-12-3.47H453.23Zm31.83,39.14q4.35-3.54,4.34-10.35T485,83.09q-4.41-3.69-12.51-3.69H453.23v28.07h19.39Q480.72,107.47,485.06,103.93Z"/><path class="cls-7" d="M594.45,51.91Q602.7,61,602.7,77.52v46.59H582.44V79.84q0-9.56-4.92-14.84t-13.45-5.28q-8.69,0-13.9,5.65T545,81.57v42.54H524.56V17H545V60a25.5,25.5,0,0,1,10.49-12.66,31.16,31.16,0,0,1,16.85-4.56Q586.2,42.79,594.45,51.91Z"/><path class="cls-8" d="M669.4,47.71a26,26,0,0,1,10.28,12.88V44h20.25v80.16H679.68V107.33a26.39,26.39,0,0,1-10.28,13A30.46,30.46,0,0,1,652,125.13a34.43,34.43,0,0,1-18.23-4.92A33.17,33.17,0,0,1,621.15,106q-4.56-9.33-4.56-21.92t4.56-21.92a33.2,33.2,0,0,1,12.66-14.25A34.43,34.43,0,0,1,652,42.94Q662.17,42.94,669.4,47.71ZM643.07,67q-5.79,6.23-5.79,17.07t5.79,17q5.79,6.16,15.34,6.15a20.16,20.16,0,0,0,15.26-6.29q6-6.3,6-16.86,0-10.71-6-17a20.16,20.16,0,0,0-15.26-6.29Q648.86,60.74,643.07,67Z"/><path class="cls-9" d="M767.15,47.71a27,27,0,0,1,10.34,12.88V17h20.26V124.11H777.49V107.33a27.37,27.37,0,0,1-10.34,13q-7.17,4.84-17.3,4.85a34.43,34.43,0,0,1-18.23-4.92A33.23,33.23,0,0,1,719,106Q714.4,96.62,714.4,84T719,62.11a33.26,33.26,0,0,1,12.66-14.25,34.43,34.43,0,0,1,18.23-4.92Q760,42.94,767.15,47.71ZM740.88,67Q735.09,73.19,735.1,84t5.78,17q5.79,6.16,15.34,6.15a20.19,20.19,0,0,0,15.27-6.29q6-6.3,6-16.86,0-10.71-6-17a20.19,20.19,0,0,0-15.27-6.29Q746.67,60.74,740.88,67Z"/><path class="cls-10" d="M817.43,12.91a14.91,14.91,0,0,1,18.23,0,10.32,10.32,0,0,1,3.47,8,10.13,10.13,0,0,1-3.47,7.89,14.91,14.91,0,0,1-18.23,0A10.11,10.11,0,0,1,814,20.94,10.3,10.3,0,0,1,817.43,12.91Zm19.24,31v80.16h-20.4V44Z"/><path class="cls-11" d="M868.94,44l21.85,54.41L911.05,44h22.42L884.42,162.31H861.85l18.08-40.51L846.22,44Z"/><path class="cls-12" d="M991.79,47.71a26.08,26.08,0,0,1,10.27,12.88V44h20.26v80.16h-20.26V107.33a26.43,26.43,0,0,1-10.27,13,30.52,30.52,0,0,1-17.37,4.85,34.43,34.43,0,0,1-18.23-4.92A33.23,33.23,0,0,1,943.53,106Q939,96.62,939,84t4.56-21.92a33.26,33.26,0,0,1,12.66-14.25,34.43,34.43,0,0,1,18.23-4.92A30.87,30.87,0,0,1,991.79,47.71ZM965.45,67q-5.79,6.23-5.79,17.07t5.79,17q5.79,6.16,15.34,6.15a20.16,20.16,0,0,0,15.26-6.29q6-6.3,6-16.86,0-10.71-6-17a20.16,20.16,0,0,0-15.26-6.29Q971.23,60.74,965.45,67Z"/><path class="cls-13" d="M1089.53,47.71a27,27,0,0,1,10.34,12.88V17h20.26V124.11h-20.26V107.33a27.37,27.37,0,0,1-10.34,13q-7.17,4.84-17.29,4.85a34.46,34.46,0,0,1-18.24-4.92A33.23,33.23,0,0,1,1041.34,106q-4.56-9.33-4.55-21.92t4.55-21.92A33.26,33.26,0,0,1,1054,47.86a34.46,34.46,0,0,1,18.24-4.92Q1082.37,42.94,1089.53,47.71ZM1063.27,67q-5.79,6.23-5.79,17.07t5.79,17q5.77,6.16,15.33,6.15a20.18,20.18,0,0,0,15.27-6.29q6-6.3,6-16.86,0-10.71-6-17a20.18,20.18,0,0,0-15.27-6.29Q1069.06,60.74,1063.27,67Z"/><path class="cls-14" d="M1170.92,47.21a31.45,31.45,0,0,1,16.49-4.42V64.64h-5.93q-22.43,0-22.43,20.84v38.63h-20.4V44h20.4V59.29A33.54,33.54,0,0,1,1170.92,47.21Z"/><path class="cls-15" d="M1247.46,47.71a26.1,26.1,0,0,1,10.28,12.88V44H1278v80.16h-20.25V107.33a26.45,26.45,0,0,1-10.28,13,30.46,30.46,0,0,1-17.36,4.85,34.43,34.43,0,0,1-18.23-4.92A33.11,33.11,0,0,1,1199.21,106q-4.56-9.33-4.56-21.92t4.56-21.92a33.13,33.13,0,0,1,12.66-14.25,34.43,34.43,0,0,1,18.23-4.92Q1240.22,42.94,1247.46,47.71ZM1221.13,67q-5.79,6.23-5.79,17.07t5.79,17q5.77,6.16,15.34,6.15a20.16,20.16,0,0,0,15.26-6.29q6-6.3,6-16.86,0-10.71-6-17a20.16,20.16,0,0,0-15.26-6.29Q1226.92,60.74,1221.13,67Z"/><path class="cls-16" d="M70,125.21H42.25l-.26-.73L5.3,20.86H29.49L56.05,99.43l26.7-78.57h24.19ZM43.8,123H68.44l35.4-100H84.32L56,106.26,27.91,23.05H8.4Z"/><path class="cls-17" d="M137.88,125.21H115.29V42.86h22.59ZM117.48,123h18.21v-78H117.48Zm9.18-90a14.25,14.25,0,0,1-9.85-3.39A11.22,11.22,0,0,1,113,20.94a11.37,11.37,0,0,1,3.84-8.84h0a16,16,0,0,1,19.69,0,11.37,11.37,0,0,1,3.84,8.84,11.22,11.22,0,0,1-3.84,8.71A14.24,14.24,0,0,1,126.66,33Zm-8.39-19.31a9.17,9.17,0,0,0-3.11,7.21A9,9,0,0,0,118.27,28,13.8,13.8,0,0,0,135,28a9,9,0,0,0,3.11-7.07A9.17,9.17,0,0,0,135,13.73a13.84,13.84,0,0,0-16.77,0Z"/><path class="cls-18" d="M176.8,125.21H154.21V42.86H176.8V55.61A34.47,34.47,0,0,1,187,46.27h0a32.67,32.67,0,0,1,17.06-4.57h1.1v24h-7c-14.36,0-21.34,6.46-21.34,19.74ZM156.4,123h18.21V85.48c0-14.55,7.92-21.93,23.53-21.93H203V43.91a30.24,30.24,0,0,0-14.83,4.24h0a32.6,32.6,0,0,0-11.49,11.69l-2,3.49V45.05H156.4Z"/><path class="cls-19" d="M251.38,126.22A44,44,0,0,1,230,121.1a36.32,36.32,0,0,1-14.61-14.69c-3.45-6.31-5.2-13.84-5.2-22.38S212,67.94,215.4,61.59A35.85,35.85,0,0,1,230,46.89a44.47,44.47,0,0,1,21.35-5,43.48,43.48,0,0,1,21.3,5.06,36,36,0,0,1,14.17,14,40.72,40.72,0,0,1,4.25,27.29l-.17.9h-58.5c.42,6.23,2.23,10.9,5.38,13.87a17.61,17.61,0,0,0,12.56,4.77,18.36,18.36,0,0,0,11.14-3.26,14.22,14.22,0,0,0,5.59-8.76l.19-.86h23.76l-.24,1.3a35.86,35.86,0,0,1-7,15.52A36.77,36.77,0,0,1,270,122.36,44.25,44.25,0,0,1,251.38,126.22Zm0-82.19a42.37,42.37,0,0,0-20.31,4.79,33.67,33.67,0,0,0-13.74,13.81c-3.27,6-4.93,13.23-4.93,21.4s1.66,15.35,4.93,21.32a34.18,34.18,0,0,0,13.74,13.82,44.76,44.76,0,0,0,38,1.2,34.57,34.57,0,0,0,13-10.1A33.45,33.45,0,0,0,288.38,97H269a16.38,16.38,0,0,1-6.22,9.19,20.44,20.44,0,0,1-12.44,3.69,19.72,19.72,0,0,1-14.06-5.36c-3.77-3.56-5.83-9.12-6.13-16.53l-.05-1.14h59a36.31,36.31,0,0,0,.55-5.85,38.43,38.43,0,0,0-4.71-19.07,33.78,33.78,0,0,0-13.32-13.1A41.32,41.32,0,0,0,251.38,44Zm19.86,36H230.11l.07-1.16c.4-6.82,2.61-12.09,6.58-15.65a21.17,21.17,0,0,1,14.62-5.35,20.72,20.72,0,0,1,14.41,5.35h0c3.94,3.6,5.79,8.9,5.49,15.77Zm-38.79-2.19h36.68c.05-5.67-1.56-10-4.81-13h0a18.57,18.57,0,0,0-12.94-4.78,19,19,0,0,0-13.15,4.78C234.92,67.84,233,72.21,232.45,77.87Z"/><path class="cls-20" d="M384.44,125.21H362V79.84c0-6-1.55-10.79-4.62-14.09s-7.31-4.93-12.66-4.93c-5.52,0-9.8,1.73-13.08,5.29s-4.92,8.74-4.92,15.46v43.64h-22.6V42.86h22.6V55.31a26.64,26.64,0,0,1,8.81-8.89A32.45,32.45,0,0,1,353,41.7c9.54,0,17.26,3.19,23,9.47s8.53,15.12,8.53,26.35ZM364.18,123h18.07V77.52c0-10.66-2.68-19-8-24.88S361.85,43.89,353,43.89a30.28,30.28,0,0,0-16.28,4.39,24.65,24.65,0,0,0-10.05,12.13l-2.11,5.39V45.05H306.31v78h18.21V81.57c0-7.29,1.85-13,5.5-16.95s8.61-6,14.69-6,10.78,1.89,14.26,5.63,5.21,9,5.21,15.58Z"/><path class="cls-21" d="M476.67,125.21H431.73V20.86H475.8c10.53,0,18.78,2.37,24.5,7.05s8.72,11.44,8.72,20c0,6.6-1.76,12.09-5.24,16.32a23.8,23.8,0,0,1-10,7.2,25.29,25.29,0,0,1,11.72,8.13h0a26,26,0,0,1,5.82,16.82c0,8.88-3,16-9,21.16S487.79,125.21,476.67,125.21ZM433.93,123h42.74c10.58,0,18.74-2.42,24.24-7.19s8.23-11.29,8.23-19.5a23.91,23.91,0,0,0-5.32-15.44h0a23.78,23.78,0,0,0-14.2-8.37l-4.94-1,4.91-1.13a22.26,22.26,0,0,0,12.5-7.59c3.14-3.83,4.74-8.85,4.74-14.93,0-7.82-2.66-14-7.92-18.25s-13.1-6.56-23.11-6.56H433.93Zm38.69-14.45H452.13V78.31h20.35c5.63,0,10.08,1.32,13.21,3.94s4.81,6.48,4.81,11.33-1.6,8.63-4.74,11.2S478.26,108.57,472.62,108.57Zm-18.29-2.19h18.29c5.12,0,9.07-1.11,11.75-3.3h0c2.65-2.16,3.94-5.27,3.94-9.5s-1.32-7.39-4-9.65-6.7-3.43-11.81-3.43H454.33Zm17.28-40.5H452.13V37.21h19.19c5.65,0,9.94,1.26,12.73,3.75s4.28,6.11,4.28,10.66-1.47,8.13-4.36,10.6S477,65.88,471.61,65.88Zm-17.28-2.19h17.28c4.82,0,8.5-1,10.93-3.14s3.6-5,3.6-8.93-1.16-6.9-3.54-9-6.18-3.2-11.28-3.2h-17Z"/><path class="cls-22" d="M603.8,125.21H581.35V79.84c0-6-1.56-10.79-4.63-14.09s-7.31-4.93-12.65-4.93c-5.52,0-9.8,1.73-13.09,5.29s-4.92,8.74-4.92,15.46v43.64H523.47V15.94h22.59V55.31a26.58,26.58,0,0,1,8.82-8.89,32.41,32.41,0,0,1,17.43-4.72c9.54,0,17.27,3.19,23,9.47s8.53,15.12,8.53,26.35ZM583.54,123H601.6V77.52c0-10.66-2.68-19-8-24.88s-12.43-8.75-21.33-8.75A30.25,30.25,0,0,0,556,48.28a24.55,24.55,0,0,0-10,12.13l-2.12,5.39V18.13H525.66V123h18.21V81.57c0-7.29,1.85-13,5.5-16.95s8.62-6,14.7-6,10.77,1.89,14.25,5.63,5.22,8.95,5.22,15.58Z"/><path class="cls-23" d="M652,126.22a35.65,35.65,0,0,1-18.8-5.08,34.42,34.42,0,0,1-13.08-14.71c-3.1-6.34-4.67-13.88-4.67-22.4s1.57-16.06,4.67-22.4a34.54,34.54,0,0,1,13.08-14.71A35.68,35.68,0,0,1,652,41.84a32,32,0,0,1,18,5h0a27.21,27.21,0,0,1,8.57,9V42.86H701v82.35H678.58v-13a27.58,27.58,0,0,1-8.57,9A31.65,31.65,0,0,1,652,126.22ZM652,44a33.57,33.57,0,0,0-17.66,4.76,32.33,32.33,0,0,0-12.25,13.8c-3,6-4.44,13.26-4.44,21.44s1.49,15.4,4.44,21.44a32.22,32.22,0,0,0,12.25,13.8A33.47,33.47,0,0,0,652,124a29.53,29.53,0,0,0,16.75-4.66,25.42,25.42,0,0,0,9.86-12.43l2.12-5.66V123h18.07v-78H680.77V66.64L678.65,61a25,25,0,0,0-9.85-12.35h0A29.87,29.87,0,0,0,652,44Zm6.37,64.25c-6.66,0-12.09-2.19-16.14-6.5S636.18,91.52,636.18,84s2.05-13.48,6.09-17.82h0c4.05-4.36,9.48-6.57,16.14-6.57a21.35,21.35,0,0,1,16.06,6.63c4.18,4.39,6.3,10.37,6.3,17.76s-2.12,13.23-6.3,17.62A21.35,21.35,0,0,1,658.41,108.28ZM643.87,67.7h0c-3.64,3.92-5.49,9.42-5.49,16.33s1.84,12.38,5.49,16.25,8.51,5.81,14.54,5.81a19.22,19.22,0,0,0,14.47-6c3.78-4,5.7-9.38,5.7-16.1s-1.92-12.28-5.7-16.24a19.22,19.22,0,0,0-14.47-6C652.39,61.83,647.5,63.81,643.87,67.7Z"/><path class="cls-24" d="M749.85,126.22a35.68,35.68,0,0,1-18.8-5.08A34.46,34.46,0,0,1,718,106.43c-3.1-6.34-4.67-13.88-4.67-22.4S714.88,68,718,61.63a34.45,34.45,0,0,1,13.07-14.71,35.7,35.7,0,0,1,18.8-5.08c6.95,0,13,1.67,17.9,5h0a28,28,0,0,1,8.65,9.06V15.94h22.45V125.21H776.4V112.07a28.58,28.58,0,0,1-8.64,9.12C762.82,124.53,756.8,126.22,749.85,126.22Zm0-82.19a33.62,33.62,0,0,0-17.66,4.76A32.37,32.37,0,0,0,720,62.59c-3,6-4.45,13.26-4.45,21.44s1.5,15.4,4.45,21.44a32.26,32.26,0,0,0,12.24,13.8A33.5,33.5,0,0,0,749.85,124a29.2,29.2,0,0,0,16.68-4.66,26.36,26.36,0,0,0,9.94-12.44l2.12-5.39V123h18.06V18.13H778.59V66.38L776.47,61a26,26,0,0,0-9.93-12.36C762,45.58,756.36,44,749.85,44Zm6.37,64.25c-6.65,0-12.08-2.19-16.14-6.5S734,91.52,734,84s2-13.48,6.08-17.82h0c4.06-4.36,9.49-6.57,16.14-6.57a21.33,21.33,0,0,1,16.06,6.63c4.19,4.39,6.31,10.37,6.31,17.76s-2.12,13.23-6.31,17.62A21.33,21.33,0,0,1,756.22,108.28ZM741.69,67.7c-3.65,3.92-5.5,9.42-5.5,16.33s1.85,12.38,5.49,16.25,8.51,5.81,14.54,5.81a19.22,19.22,0,0,0,14.47-6c3.79-4,5.71-9.38,5.71-16.1s-1.92-12.28-5.71-16.24a19.22,19.22,0,0,0-14.47-6c-6,0-10.91,2-14.53,5.87Z"/><path class="cls-25" d="M837.77,125.21h-22.6V42.86h22.6ZM817.37,123h18.21v-78H817.37Zm9.17-90a14.24,14.24,0,0,1-9.84-3.39,11.22,11.22,0,0,1-3.84-8.71,11.37,11.37,0,0,1,3.84-8.84h0a16,16,0,0,1,19.69,0,11.37,11.37,0,0,1,3.84,8.84,11.22,11.22,0,0,1-3.84,8.71A14.25,14.25,0,0,1,826.54,33Zm-8.38-19.31h0a9.15,9.15,0,0,0-3.11,7.21A9,9,0,0,0,818.16,28a13.8,13.8,0,0,0,16.77,0A9,9,0,0,0,838,20.94a9.15,9.15,0,0,0-3.11-7.21,13.84,13.84,0,0,0-16.77,0Z"/><path class="cls-26" d="M885.15,163.41h-25l18.58-41.62L844.55,42.86h25.13l21.07,52.46,19.53-52.46h24.83Zm-21.61-2.19h20.15L931.83,45.05h-20l-21,56.35L868.2,45.05H847.89l33.24,76.75Z"/><path class="cls-27" d="M974.42,126.22a35.68,35.68,0,0,1-18.8-5.08,34.42,34.42,0,0,1-13.08-14.71c-3.09-6.34-4.66-13.88-4.66-22.4s1.57-16.06,4.66-22.4a34.54,34.54,0,0,1,13.08-14.71,35.68,35.68,0,0,1,18.8-5.08,32,32,0,0,1,18,5h0a27.21,27.21,0,0,1,8.57,9V42.86h22.45v82.35H1001v-13a27.55,27.55,0,0,1-8.56,9A31.71,31.71,0,0,1,974.42,126.22Zm0-82.19a33.59,33.59,0,0,0-17.66,4.76,32.33,32.33,0,0,0-12.25,13.8c-3,6-4.44,13.26-4.44,21.44s1.49,15.4,4.44,21.44a32.34,32.34,0,0,0,12.25,13.8A33.47,33.47,0,0,0,974.42,124a29.58,29.58,0,0,0,16.76-4.66,25.45,25.45,0,0,0,9.85-12.43l2.13-5.66V123h18.06v-78h-18.06V66.64L1001,61a25,25,0,0,0-9.85-12.35h0A29.87,29.87,0,0,0,974.42,44Zm6.37,64.25c-6.66,0-12.09-2.19-16.14-6.5S958.57,91.52,958.57,84s2-13.48,6.08-17.82h0c4.06-4.36,9.49-6.57,16.14-6.57a21.35,21.35,0,0,1,16.06,6.63c4.18,4.39,6.31,10.37,6.31,17.76s-2.13,13.23-6.31,17.62A21.35,21.35,0,0,1,980.79,108.28ZM966.25,67.7h0c-3.64,3.92-5.49,9.42-5.49,16.33s1.85,12.38,5.49,16.25,8.51,5.81,14.54,5.81a19.22,19.22,0,0,0,14.47-6c3.78-4,5.7-9.38,5.7-16.1s-1.92-12.28-5.7-16.24a19.22,19.22,0,0,0-14.47-6C974.77,61.83,969.88,63.81,966.25,67.7Z"/><path class="cls-28" d="M1072.24,126.22a35.65,35.65,0,0,1-18.8-5.08,34.42,34.42,0,0,1-13.08-14.71c-3.1-6.34-4.67-13.88-4.67-22.4s1.57-16.06,4.67-22.4a34.54,34.54,0,0,1,13.08-14.71,35.65,35.65,0,0,1,18.8-5.08c6.94,0,13,1.67,17.9,5h0a28.09,28.09,0,0,1,8.64,9.06V15.94h22.45V125.21h-22.45V112.07a28.58,28.58,0,0,1-8.64,9.12C1085.21,124.53,1079.18,126.22,1072.24,126.22Zm0-82.19a33.63,33.63,0,0,0-17.67,4.76,32.37,32.37,0,0,0-12.24,13.8c-2.95,6-4.45,13.26-4.45,21.44s1.5,15.4,4.45,21.44a32.26,32.26,0,0,0,12.24,13.8,33.54,33.54,0,0,0,17.67,4.76c6.5,0,12.11-1.57,16.67-4.66a26.36,26.36,0,0,0,9.94-12.44l2.12-5.39V123H1119V18.13H1101V66.38L1098.85,61a26,26,0,0,0-9.93-12.36A29.49,29.49,0,0,0,1072.24,44Zm6.36,64.25c-6.65,0-12.08-2.19-16.13-6.5s-6.09-10.26-6.09-17.75,2-13.48,6.08-17.82h0c4.06-4.36,9.49-6.57,16.14-6.57a21.33,21.33,0,0,1,16.06,6.63c4.19,4.39,6.31,10.37,6.31,17.76s-2.12,13.23-6.31,17.62A21.33,21.33,0,0,1,1078.6,108.28ZM1064.07,67.7c-3.65,3.92-5.5,9.42-5.5,16.33s1.85,12.38,5.49,16.25,8.52,5.81,14.54,5.81a19.25,19.25,0,0,0,14.48-6c3.78-4,5.7-9.38,5.7-16.1s-1.92-12.28-5.7-16.24a19.25,19.25,0,0,0-14.48-6c-6,0-10.91,2-14.53,5.87Z"/><path class="cls-29" d="M1160.15,125.21h-22.6V42.86h22.6V55.61a34.23,34.23,0,0,1,10.21-9.34h0a32.64,32.64,0,0,1,17.05-4.57h1.1v24h-7c-14.35,0-21.33,6.46-21.33,19.74Zm-20.4-2.19H1158V85.48c0-14.55,7.91-21.93,23.52-21.93h4.84V43.91a30.28,30.28,0,0,0-14.84,4.24A32.58,32.58,0,0,0,1160,59.84l-2,3.49V45.05h-18.21Z"/><path class="cls-30" d="M1230.1,126.22a35.65,35.65,0,0,1-18.8-5.08,34.42,34.42,0,0,1-13.08-14.71c-3.1-6.34-4.67-13.88-4.67-22.4s1.57-16.06,4.67-22.4a34.54,34.54,0,0,1,13.08-14.71,35.68,35.68,0,0,1,18.8-5.08,32,32,0,0,1,18,5h0a27.21,27.21,0,0,1,8.57,9V42.86h22.45v82.35h-22.45v-13a27.68,27.68,0,0,1-8.57,9A31.65,31.65,0,0,1,1230.1,126.22Zm0-82.19a33.57,33.57,0,0,0-17.66,4.76,32.33,32.33,0,0,0-12.25,13.8c-3,6-4.45,13.26-4.45,21.44s1.5,15.4,4.45,21.44a32.22,32.22,0,0,0,12.25,13.8A33.47,33.47,0,0,0,1230.1,124a29.53,29.53,0,0,0,16.75-4.66,25.42,25.42,0,0,0,9.86-12.43l2.12-5.66V123h18.07v-78h-18.07V66.64L1256.71,61a25,25,0,0,0-9.85-12.35h0A29.87,29.87,0,0,0,1230.1,44Zm6.37,64.25c-6.66,0-12.09-2.19-16.14-6.5s-6.09-10.26-6.09-17.75,2-13.48,6.08-17.82h0c4.06-4.36,9.49-6.57,16.15-6.57a21.33,21.33,0,0,1,16,6.63c4.19,4.39,6.31,10.37,6.31,17.76s-2.12,13.23-6.31,17.62A21.33,21.33,0,0,1,1236.47,108.28ZM1221.93,67.7h0c-3.65,3.92-5.49,9.42-5.49,16.33s1.84,12.38,5.49,16.25,8.51,5.81,14.54,5.81a19.22,19.22,0,0,0,14.47-6c3.78-4,5.7-9.38,5.7-16.1s-1.92-12.28-5.7-16.24a19.22,19.22,0,0,0-14.47-6C1230.45,61.83,1225.56,63.81,1221.93,67.7Z"/></svg>