<svg id="Layer_1" data-name="Layer 1" xmlns="http://www.w3.org/2000/svg" xmlns:xlink="http://www.w3.org/1999/xlink" viewBox="0 0 33 33"><defs><style>.cls-1{fill:#fff;opacity:0.5;}.cls-2{fill:url(#linear-gradient);}</style><linearGradient id="linear-gradient" x1="2.1" y1="16.46" x2="30.96" y2="16.46" gradientUnits="userSpaceOnUse"><stop offset="0" stop-color="#fff" stop-opacity="0"/><stop offset="1" stop-color="#fff" stop-opacity="0.5"/></linearGradient></defs><path class="cls-1" d="M29.34,19.56v.57c0,3.11,0,6.22,0,9.34A3.4,3.4,0,0,1,26,32.76c-1.74,0-3.47,0-5.21,0-.82,0-1.17-.35-1.17-1.19V24.44a3.07,3.07,0,0,0-.09-.86,1.53,1.53,0,0,0-1.49-1h-3a1.58,1.58,0,0,0-1.66,1.67c0,2.43,0,4.86,0,7.3,0,.95-.31,1.26-1.24,1.26-1.58,0-3.17-.06-4.75,0A3.61,3.61,0,0,1,3.68,29c.07-3,0-6,0-8.93v-.57c-.4-.05-.77-.08-1.12-.15A3,3,0,0,1,.87,14.59c.88-1.05,1.91-2,2.89-2.95,3.47-3.48,7-6.92,10.4-10.44a3.33,3.33,0,0,1,4.71,0q6.45,6.57,13,13a3.05,3.05,0,0,1-1.05,5.07A12.16,12.16,0,0,1,29.34,19.56ZM11.46,30.88v-.61q0-3.07,0-6.13a3.4,3.4,0,0,1,3-3.44,30.69,30.69,0,0,1,3.46-.08,3.51,3.51,0,0,1,3.66,3.66c0,2,0,4,0,6v.6h3.83c1.46,0,2.05-.58,2.05-2,0-3.36,0-6.71,0-10.06,0-.94.31-1.26,1.25-1.26h.91a1.12,1.12,0,0,0,1.24-.68,1.15,1.15,0,0,0-.41-1.36Q24,9,17.5,2.55c-.72-.72-1.23-.71-1.95,0L8.4,9.71,2.63,15.48c-.4.4-.69.82-.43,1.4a1.14,1.14,0,0,0,1.26.66h.81c1,0,1.36.33,1.36,1.38V29.18a1.54,1.54,0,0,0,1.48,1.69C8.53,30.93,10,30.88,11.46,30.88Z"/><path class="cls-2" d="M11.46,30.88c-1.5,0-2.93.05-4.35,0a1.54,1.54,0,0,1-1.48-1.69V18.92c0-1.05-.33-1.38-1.36-1.38H3.46a1.14,1.14,0,0,1-1.26-.66c-.26-.58,0-1,.43-1.4L8.4,9.71l7.15-7.14c.72-.73,1.23-.74,1.95,0l13,13a1.15,1.15,0,0,1,.41,1.36,1.12,1.12,0,0,1-1.24.68h-.91c-.94,0-1.25.32-1.25,1.26,0,3.35,0,6.7,0,10.06,0,1.45-.59,2-2.05,2H21.58v-.6c0-2,0-4,0-6a3.51,3.51,0,0,0-3.66-3.66,30.69,30.69,0,0,0-3.46.08,3.4,3.4,0,0,0-3,3.44q0,3.06,0,6.13Z"/></svg>