<svg id="Layer_1" data-name="Layer 1" xmlns="http://www.w3.org/2000/svg" xmlns:xlink="http://www.w3.org/1999/xlink" viewBox="0 0 120 120"><defs><style>.cls-1{fill:url(#linear-gradient);}.cls-2{fill:#49a1d9;}.cls-3,.cls-4,.cls-5{fill:none;stroke-miterlimit:10;}.cls-3{stroke:url(#linear-gradient-2);}.cls-4{stroke:url(#linear-gradient-3);}.cls-5{stroke:url(#linear-gradient-4);}</style><linearGradient id="linear-gradient" x1="113.25" y1="108.91" x2="5.21" y2="9.68" gradientUnits="userSpaceOnUse"><stop offset="0" stop-color="#fff" stop-opacity="0"/><stop offset="1" stop-color="#fff" stop-opacity="0.5"/></linearGradient><linearGradient id="linear-gradient-2" x1="-0.5" y1="60" x2="120.5" y2="60" xlink:href="#linear-gradient"/><linearGradient id="linear-gradient-3" x1="29.86" y1="57.87" x2="65.73" y2="57.87" xlink:href="#linear-gradient"/><linearGradient id="linear-gradient-4" x1="69.95" y1="63.78" x2="95.64" y2="63.78" xlink:href="#linear-gradient"/></defs><path class="cls-1" d="M60.1,1.51q19.12,0,38.25,0A21.18,21.18,0,0,1,120,23.17q0,36.84,0,73.68a21.16,21.16,0,0,1-21.66,21.63q-38.34,0-76.68,0A21.16,21.16,0,0,1,0,96.83Q0,60,0,23.15C0,10.81,9.31,1.53,21.67,1.51Q40.88,1.5,60.1,1.51Z"/><path class="cls-2" d="M30.4,57.85c0-8.12,0-16.24,0-24.36,0-1.56.44-2.09,2-2q3.75.18,7.5,0c1.4-.06,1.78.36,1.77,1.77,0,12.87,0,25.74-.07,38.6,0,1.66.35,2.21,2.11,2.18,6.56-.11,13.12,0,19.68-.07,1.78,0,2.12.53,1.69,2.2A43.25,43.25,0,0,0,64.12,82c-.18,1.53-.71,2.26-2.45,2.24q-14.52-.12-29.05,0c-1.69,0-2.27-.49-2.26-2.25C30.45,74,30.4,65.9,30.4,57.85Z"/><path class="cls-2" d="M81.63,49.35c2.81-2.93,5.71-4.89,9.31-5.64.18,0,.35-.13.53-.17,3.29-.61,3.65-.31,3.65,3,0,2.06-.06,4.13,0,6.18,0,1.31-.42,1.71-1.74,1.7A19.7,19.7,0,0,0,84,56.56a3.1,3.1,0,0,0-2,3.19c.1,7.55,0,15.11.07,22.66,0,1.38-.39,1.89-1.77,1.85-2.56-.07-5.12-.08-7.68,0-1.5,0-1.87-.54-1.86-2,.06-10.05,0-20.1,0-30.15a35.41,35.41,0,0,0-.38-6.34c-.2-1.18.14-1.68,1.45-1.62a45,45,0,0,0,6.36,0c2.08-.2,2.81.84,3,2.6C81.46,47.5,81.51,48.23,81.63,49.35Z"/><path class="cls-3" d="M60.1,1.51q19.12,0,38.25,0A21.18,21.18,0,0,1,120,23.17q0,36.84,0,73.68a21.16,21.16,0,0,1-21.66,21.63q-38.34,0-76.68,0A21.16,21.16,0,0,1,0,96.83Q0,60,0,23.15C0,10.81,9.31,1.53,21.67,1.51Q40.88,1.5,60.1,1.51Z"/><path class="cls-4" d="M30.4,57.85c0-8.12,0-16.24,0-24.36,0-1.56.44-2.09,2-2q3.75.18,7.5,0c1.4-.06,1.78.36,1.77,1.77,0,12.87,0,25.74-.07,38.6,0,1.66.35,2.21,2.11,2.18,6.56-.11,13.12,0,19.68-.07,1.78,0,2.12.53,1.69,2.2A43.25,43.25,0,0,0,64.12,82c-.18,1.53-.71,2.26-2.45,2.24q-14.52-.12-29.05,0c-1.69,0-2.27-.49-2.26-2.25C30.45,74,30.4,65.9,30.4,57.85Z"/><path class="cls-5" d="M81.63,49.35c2.81-2.93,5.71-4.89,9.31-5.64.18,0,.35-.13.53-.17,3.29-.61,3.65-.31,3.65,3,0,2.06-.06,4.13,0,6.18,0,1.31-.42,1.71-1.74,1.7A19.7,19.7,0,0,0,84,56.56a3.1,3.1,0,0,0-2,3.19c.1,7.55,0,15.11.07,22.66,0,1.38-.39,1.89-1.77,1.85-2.56-.07-5.12-.08-7.68,0-1.5,0-1.87-.54-1.86-2,.06-10.05,0-20.1,0-30.15a35.41,35.41,0,0,0-.38-6.34c-.2-1.18.14-1.68,1.45-1.62a45,45,0,0,0,6.36,0c2.08-.2,2.81.84,3,2.6C81.46,47.5,81.51,48.23,81.63,49.35Z"/></svg>