<svg id="Layer_1" data-name="Layer 1" xmlns="http://www.w3.org/2000/svg" xmlns:xlink="http://www.w3.org/1999/xlink" viewBox="0 0 33 33"><defs><style>.cls-1{fill:url(#linear-gradient);}.cls-2{fill:url(#linear-gradient-2);}.cls-3{opacity:0.5;}.cls-4{fill:#f3f3f3;}</style><linearGradient id="linear-gradient" x1="7.5" y1="13.51" x2="31.52" y2="13.51" gradientUnits="userSpaceOnUse"><stop offset="0" stop-color="#fff" stop-opacity="0"/><stop offset="1" stop-color="#fff" stop-opacity="0.5"/></linearGradient><linearGradient id="linear-gradient-2" x1="1.52" y1="19.53" x2="25.49" y2="19.53" xlink:href="#linear-gradient"/></defs><path class="cls-1" d="M19.52,1.52c2.89,0,5.78.07,8.66,0a3.17,3.17,0,0,1,3.34,3.31c-.06,5.81,0,11.62,0,17.43a3,3,0,0,1-3.28,3.27H10.83A3,3,0,0,1,7.5,22.22V4.78a3,3,0,0,1,3.25-3.25Zm9,21-6-7.46-4.43,5.54-3.08-4-4.46,6Z"/><path class="cls-2" d="M25.49,28.52v2.95l-.55,0H4.74a3,3,0,0,1-3-1.93,3.46,3.46,0,0,1-.17-1.1q0-10.32,0-20.65c0-.07,0-.15,0-.26h3v21Z"/><g class="cls-3"><path class="cls-4" d="M28.26,26,10.88,26A3.54,3.54,0,0,1,7,22.26L7,4.83a3.49,3.49,0,0,1,3.72-3.78l6.19,0H22c2,0,4,0,6.06-.06a3.67,3.67,0,0,1,2.75,1A3.75,3.75,0,0,1,32,4.74c0,4,0,8.08,0,12l0,5.41A3.47,3.47,0,0,1,28.26,26ZM14.29,2l-3.61,0A2.49,2.49,0,0,0,8,4.82L8,22.26A2.54,2.54,0,0,0,10.87,25L28.25,25A2.51,2.51,0,0,0,31,22.17l0-5.4c0-3.95,0-8,0-12a2.81,2.81,0,0,0-.81-2.05,2.69,2.69,0,0,0-2-.73C26.09,2,24,2,22,2H14.29ZM29.55,22.92,9.57,23,15,15.7l3.11,4,4.39-5.55Zm-18-.92,15.91-.07-5-6.14L18.1,21.36l-3.09-4Z"/><path class="cls-4" d="M14,32l-9.14.05A3.44,3.44,0,0,1,1.3,29.81a3.64,3.64,0,0,1-.21-1.27q-.06-9-.1-18V7.9a1.77,1.77,0,0,1,0-.22l0-.45.47-.1,3.44,0,.1,21,21-.1,0,3.92-.65.05L25,32ZM2,8.13v2.43q0,9,.1,18a2.61,2.61,0,0,0,.15.92,2.44,2.44,0,0,0,2.57,1.6L25,31h0V29l-21,.1-.11-21Z"/></g></svg>