<svg id="Layer_1" data-name="Layer 1" xmlns="http://www.w3.org/2000/svg" xmlns:xlink="http://www.w3.org/1999/xlink" viewBox="0 0 120 120"><defs><style>.cls-1{fill:url(#linear-gradient);}.cls-2{fill:#9696ca;}.cls-3{fill:url(#linear-gradient-2);}.cls-4{fill:url(#linear-gradient-3);}.cls-10,.cls-5,.cls-6,.cls-7,.cls-8,.cls-9{fill:none;stroke-miterlimit:10;}.cls-5{stroke:url(#linear-gradient-4);}.cls-6{stroke:url(#linear-gradient-5);}.cls-7{stroke:url(#linear-gradient-6);}.cls-8{stroke:url(#linear-gradient-7);}.cls-9{stroke:url(#linear-gradient-8);}.cls-10{stroke:url(#linear-gradient-9);}</style><linearGradient id="linear-gradient" x1="110.96" y1="110.54" x2="10.99" y2="11.34" gradientUnits="userSpaceOnUse"><stop offset="0" stop-color="#fff" stop-opacity="0"/><stop offset="1" stop-color="#fff" stop-opacity="0.5"/></linearGradient><linearGradient id="linear-gradient-2" x1="132.2" y1="88.95" x2="32.23" y2="-10.26" xlink:href="#linear-gradient"/><linearGradient id="linear-gradient-3" x1="109.99" y1="111.33" x2="10.02" y2="12.13" xlink:href="#linear-gradient"/><linearGradient id="linear-gradient-4" x1="-0.5" y1="60" x2="120.5" y2="60" xlink:href="#linear-gradient"/><linearGradient id="linear-gradient-5" x1="23.15" y1="60" x2="66.33" y2="60" xlink:href="#linear-gradient"/><linearGradient id="linear-gradient-6" x1="71.59" y1="66.48" x2="96.85" y2="66.48" xlink:href="#linear-gradient"/><linearGradient id="linear-gradient-7" x1="95.51" y1="52.41" x2="96.93" y2="52.41" xlink:href="#linear-gradient"/><linearGradient id="linear-gradient-8" x1="36.16" y1="50.96" x2="53.26" y2="50.96" xlink:href="#linear-gradient"/><linearGradient id="linear-gradient-9" x1="35.9" y1="43.34" x2="51.31" y2="43.34" xlink:href="#linear-gradient"/></defs><path class="cls-1" d="M0,59.81C0,50.76.18,41.7,0,32.64A31.76,31.76,0,0,1,26,.49,27.5,27.5,0,0,1,31.16,0Q60,0,88.87,0a31.49,31.49,0,0,1,30.38,24.82,34.09,34.09,0,0,1,.75,7Q120,60,120,88.1A31.61,31.61,0,0,1,93.9,119.54a27.33,27.33,0,0,1-5,.42Q60,120,31.16,120A31.53,31.53,0,0,1,.78,95.15,35.14,35.14,0,0,1,0,87.92Q.06,73.86,0,59.81Z"/><path class="cls-2" d="M96.06,56.26c.32,1.82-.68,2.08-2.14,1.82A12,12,0,0,0,88,58.5a4.59,4.59,0,0,0-3.5,4.87c0,7.18-.05,14.36,0,21.55,0,1.44-.43,1.78-1.79,1.74-3.06-.1-6.13-.08-9.18,0-1.17,0-1.47-.36-1.47-1.49q0-18.27,0-36.54c0-1.37.5-1.69,1.75-1.65,2.68.07,5.37.11,8,0,1.6-.08,2.16.53,2.1,2,0,.84,0,1.69,0,2.75,1.12-.67,1.31-1.65,1.92-2.31,2.6-2.81,5.8-3.52,9.46-2.9.83.14,1,.51,1,1.25s0,1.62,0,2.43C95.93,52.19,96.42,54.24,96.06,56.26Z"/><path class="cls-3" d="M96.06,56.26a24.77,24.77,0,0,1,.27-6.08C96.31,52.21,96.69,54.25,96.06,56.26Z"/><path class="cls-2" d="M64.92,45.85A18.39,18.39,0,0,0,47.58,33.43c-7.43-.13-14.86,0-22.29-.09-1.35,0-1.65.41-1.64,1.69.06,8.3,0,16.61,0,24.91s0,16.73,0,25.1c0,1.15.2,1.65,1.51,1.62,3.31-.1,6.62-.09,9.93,0,1.24,0,1.6-.35,1.58-1.58-.06-4.8.06-9.61-.07-14.42,0-1.79.56-2.13,2.2-2.11,4.35,0,8.71.18,13-.67C62.28,65.82,68.21,55.94,64.92,45.85ZM47.8,58.32c-2.51.56-5.1.21-7.66.24-3.49,0-3.5,0-3.48-3.55,0-3.81,0-7.61.07-11.42a49.87,49.87,0,0,1,9.85-.14c4,.84,6.09,3.49,6.18,7.86C52.83,54.91,51,57.59,47.8,58.32Z"/><path class="cls-4" d="M46.58,43.45l-9.85.14c.05-.11.1-.31.16-.31C40.12,43.15,43.36,42.81,46.58,43.45Z"/><path class="cls-5" d="M0,59.81C0,50.76.18,41.7,0,32.64A31.76,31.76,0,0,1,26,.49,27.5,27.5,0,0,1,31.16,0Q60,0,88.87,0a31.49,31.49,0,0,1,30.38,24.82,34.09,34.09,0,0,1,.75,7Q120,60,120,88.1A31.61,31.61,0,0,1,93.9,119.54a27.33,27.33,0,0,1-5,.42Q60,120,31.16,120A31.53,31.53,0,0,1,.78,95.15,35.14,35.14,0,0,1,0,87.92Q.06,73.86,0,59.81Z"/><path class="cls-6" d="M23.68,59.94c0-8.3,0-16.61,0-24.91,0-1.28.29-1.7,1.64-1.69,7.43.08,14.86,0,22.29.09A18.39,18.39,0,0,1,64.92,45.85c3.29,10.09-2.64,20-13.07,22-4.34.85-8.69.72-13,.67-1.64,0-2.25.32-2.2,2.11.13,4.81,0,9.62.07,14.42,0,1.23-.34,1.61-1.58,1.58-3.31-.09-6.62-.1-9.93,0-1.31,0-1.52-.47-1.51-1.62C23.7,76.67,23.68,68.31,23.68,59.94Z"/><path class="cls-7" d="M96.06,56.26c.32,1.82-.68,2.08-2.14,1.82A12,12,0,0,0,88,58.5a4.59,4.59,0,0,0-3.5,4.87c0,7.18-.05,14.36,0,21.55,0,1.44-.43,1.78-1.79,1.74-3.06-.1-6.13-.08-9.18,0-1.17,0-1.47-.36-1.47-1.49q0-18.27,0-36.54c0-1.37.5-1.69,1.75-1.65,2.68.07,5.37.11,8,0,1.6-.08,2.16.53,2.1,2,0,.84,0,1.69,0,2.75,1.12-.67,1.31-1.65,1.92-2.31,2.6-2.81,5.8-3.52,9.46-2.9.83.14,1,.51,1,1.25s0,1.62,0,2.43C95.93,52.19,96.42,54.24,96.06,56.26Z"/><path class="cls-8" d="M96.06,56.26a24.77,24.77,0,0,1,.27-6.08C96.31,52.21,96.69,54.25,96.06,56.26Z"/><path class="cls-9" d="M46.58,43.45c4,.84,6.09,3.49,6.18,7.86.07,3.6-1.72,6.28-5,7-2.51.56-5.1.21-7.66.24-3.49,0-3.5,0-3.48-3.55,0-3.81,0-7.61.07-11.42A49.87,49.87,0,0,1,46.58,43.45Z"/><path class="cls-10" d="M46.58,43.45l-9.85.14c.05-.11.1-.31.16-.31C40.12,43.15,43.36,42.81,46.58,43.45Z"/></svg>