<svg id="Layer_1" data-name="Layer 1" xmlns="http://www.w3.org/2000/svg" xmlns:xlink="http://www.w3.org/1999/xlink" viewBox="0 0 120 120"><defs><style>.cls-1{fill:url(#linear-gradient);}.cls-2{fill:#49a1d9;}.cls-3,.cls-4,.cls-5,.cls-6{fill:none;stroke-miterlimit:10;}.cls-3{stroke:url(#linear-gradient-2);}.cls-4{stroke:url(#linear-gradient-3);}.cls-5{stroke:url(#linear-gradient-4);}.cls-6{stroke:url(#linear-gradient-5);}</style><linearGradient id="linear-gradient" x1="112.75" y1="114.68" x2="8.17" y2="6.27" gradientUnits="userSpaceOnUse"><stop offset="0" stop-color="#fff" stop-opacity="0"/><stop offset="1" stop-color="#fff" stop-opacity="0.5"/></linearGradient><linearGradient id="linear-gradient-2" x1="-0.5" y1="60" x2="120.5" y2="60" xlink:href="#linear-gradient"/><linearGradient id="linear-gradient-3" x1="26.49" y1="57.73" x2="65.4" y2="57.73" xlink:href="#linear-gradient"/><linearGradient id="linear-gradient-4" x1="69.48" y1="64.4" x2="99.7" y2="64.4" xlink:href="#linear-gradient"/><linearGradient id="linear-gradient-5" x1="37.37" y1="49.64" x2="54.53" y2="49.64" xlink:href="#linear-gradient"/></defs><path class="cls-1" d="M60,1.52q19.11,0,38.24,0c10.45,0,18.74,6.42,21.24,16.53a19.92,19.92,0,0,1,.52,4.83q0,37.11,0,74.23a21.14,21.14,0,0,1-21.36,21.36q-38.62,0-77.24,0A21.15,21.15,0,0,1,0,97.12Q0,60,0,22.88A21.16,21.16,0,0,1,21.38,1.52Q40.69,1.49,60,1.52Z"/><path class="cls-2" d="M70.07,77.68c.07-1.55-.42-3.66.39-4.48s2.49,1,3.88,1.41c3.72,1.13,7.46,2,11.38,1.22,1.34-.26,2.46-.84,2.64-2.25.16-1.25-.78-2-1.79-2.62a38.86,38.86,0,0,0-5.45-2.4,23.73,23.73,0,0,1-6.79-3.84,10.68,10.68,0,0,1-3.84-11,11.74,11.74,0,0,1,8.37-9c5.56-1.82,11.18-1.31,16.75.18A1.82,1.82,0,0,1,97.17,47c-.1,2.18-.07,4.37,0,6.55,0,1.48-.47,1.74-1.78,1.15a22.1,22.1,0,0,0-12.19-1.85,2.59,2.59,0,0,0-2.45,1.95,2.33,2.33,0,0,0,1.37,2.63,34.11,34.11,0,0,0,4.51,2.19,55.5,55.5,0,0,1,6.59,3.07c3.92,2.2,6.1,5.45,6,10a11.4,11.4,0,0,1-6.92,10.67C87.72,85.54,82.86,85.47,78,85a26.87,26.87,0,0,1-6-1.37c-1.36-.47-2.08-1.18-1.9-2.72a25.94,25.94,0,0,0,0-3.18Z"/><path class="cls-2" d="M54,33A29.5,29.5,0,0,0,43,31.2c-4.86,0-9.73.26-14.6.28-1.42,0-1.44.7-1.44,1.73Q27,45.59,27,58c0,8.18,0,16.36,0,24.54,0,1.24.27,1.82,1.64,1.77,2.56-.08,5.12-.05,7.68,0,1.21,0,1.61-.43,1.59-1.66-.07-4.56,0-9.12-.06-13.68,0-1.16.32-1.49,1.47-1.45a53,53,0,0,0,9.34-.31c7.7-1.08,13.92-5.6,15.72-13.31C66.45,44.92,62.28,36.31,54,33ZM49.4,56.66c-3.38,1.65-7,1.47-10.6,1.42-.92,0-.92-.61-.92-1.27,0-2.43,0-4.87,0-7.3s0-4.74,0-7.1c0-.69,0-1.23.94-1.2,3,.08,6-.32,8.93.4A7.84,7.84,0,0,1,54,48.67,7.51,7.51,0,0,1,49.4,56.66Z"/><path class="cls-3" d="M60,1.52q19.11,0,38.24,0c10.45,0,18.74,6.42,21.24,16.53a19.92,19.92,0,0,1,.52,4.83q0,37.11,0,74.23a21.14,21.14,0,0,1-21.36,21.36q-38.62,0-77.24,0A21.15,21.15,0,0,1,0,97.12Q0,60,0,22.88A21.16,21.16,0,0,1,21.38,1.52Q40.69,1.49,60,1.52Z"/><path class="cls-4" d="M27,58q0-12.37,0-24.74c0-1,0-1.72,1.44-1.73,4.87,0,9.74-.3,14.6-.28A29.5,29.5,0,0,1,54,33c8.25,3.28,12.42,11.89,10.34,20.81-1.8,7.71-8,12.23-15.72,13.31a53,53,0,0,1-9.34.31c-1.15,0-1.48.29-1.47,1.45.07,4.56,0,9.12.06,13.68,0,1.23-.38,1.68-1.59,1.66-2.56,0-5.12-.07-7.68,0-1.37,0-1.65-.53-1.64-1.77C27,74.31,27,66.13,27,58Z"/><path class="cls-5" d="M70.07,77.68c.07-1.55-.42-3.66.39-4.48s2.49,1,3.88,1.41c3.72,1.13,7.46,2,11.38,1.22,1.34-.26,2.46-.84,2.64-2.25.16-1.25-.78-2-1.79-2.62a38.86,38.86,0,0,0-5.45-2.4,23.73,23.73,0,0,1-6.79-3.84,10.68,10.68,0,0,1-3.84-11,11.74,11.74,0,0,1,8.37-9c5.56-1.82,11.18-1.31,16.75.18A1.82,1.82,0,0,1,97.17,47c-.1,2.18-.07,4.37,0,6.55,0,1.48-.47,1.74-1.78,1.15a22.1,22.1,0,0,0-12.19-1.85,2.59,2.59,0,0,0-2.45,1.95,2.33,2.33,0,0,0,1.37,2.63,34.11,34.11,0,0,0,4.51,2.19,55.5,55.5,0,0,1,6.59,3.07c3.92,2.2,6.1,5.45,6,10a11.4,11.4,0,0,1-6.92,10.67C87.72,85.54,82.86,85.47,78,85a26.87,26.87,0,0,1-6-1.37c-1.36-.47-2.08-1.18-1.9-2.72a25.94,25.94,0,0,0,0-3.18Z"/><path class="cls-6" d="M37.88,49.51c0-2.37,0-4.74,0-7.1,0-.69,0-1.23.94-1.2,3,.08,6-.32,8.93.4A7.84,7.84,0,0,1,54,48.67a7.51,7.51,0,0,1-4.58,8c-3.38,1.65-7,1.47-10.6,1.42-.92,0-.92-.61-.92-1.27C37.89,54.38,37.88,51.94,37.88,49.51Z"/></svg>