<svg id="Layer_1" data-name="Layer 1" xmlns="http://www.w3.org/2000/svg" xmlns:xlink="http://www.w3.org/1999/xlink" viewBox="0 0 33 33"><defs><style>.cls-1{fill:url(#linear-gradient);}.cls-2{fill:url(#linear-gradient-2);}.cls-3{fill:url(#linear-gradient-3);}.cls-4{opacity:0.5;}.cls-5{fill:#f3f3f3;}</style><linearGradient id="linear-gradient" x1="8.48" y1="13.86" x2="24.52" y2="13.86" gradientUnits="userSpaceOnUse"><stop offset="0" stop-color="#fff" stop-opacity="0"/><stop offset="1" stop-color="#fff" stop-opacity="0.5"/></linearGradient><linearGradient id="linear-gradient-2" x1="10.35" y1="29.77" x2="22.66" y2="29.77" xlink:href="#linear-gradient"/><linearGradient id="linear-gradient-3" x1="15.62" y1="16.46" x2="17.38" y2="16.46" xlink:href="#linear-gradient"/></defs><path class="cls-1" d="M15.59,14a2.7,2.7,0,0,0-1.66,3.15,2.65,2.65,0,0,0,5.14,0A2.68,2.68,0,0,0,17.41,14V1.66l.07,0c.08.16.17.31.24.47q3.34,7,6.7,14a.65.65,0,0,1-.06.76,16.71,16.71,0,0,0-3,6.66c-.17.87-.28,1.76-.42,2.68H12.05c-.08-.64-.15-1.31-.25-2A17.09,17.09,0,0,0,8.66,16.9a.63.63,0,0,1-.09-.76L15.35,2l.24-.45Z"/><path class="cls-2" d="M10.35,31.5V28H22.66V31.5Z"/><path class="cls-3" d="M16.51,17.32a.86.86,0,1,1,0-1.72.85.85,0,0,1,.89.88A.84.84,0,0,1,16.51,17.32Z"/><g class="cls-4"><path class="cls-5" d="M21.35,27.44H11.61l-.13-1q-.08-.67-.18-1.35a16.33,16.33,0,0,0-3.05-7.14,1.15,1.15,0,0,1-.13-1.27q2.52-5.26,5-10.54L14.9,2.46c0-.09.09-.18.15-.29l1-1.89V15l-.26.14a2.21,2.21,0,0,0-1.41,2.59,2.15,2.15,0,0,0,2.09,1.61h0a2.12,2.12,0,0,0,2.06-1.61,2.22,2.22,0,0,0-1.4-2.58L16.91,15V2l.74-.29.35.52a3.59,3.59,0,0,1,.17.34L19.78,6q2.53,5.32,5.09,10.65a1.13,1.13,0,0,1-.1,1.26,16.15,16.15,0,0,0-2.93,6.47c-.11.59-.2,1.18-.29,1.8Zm-8.86-1h8l.06-.43c.09-.63.18-1.24.3-1.85A17,17,0,0,1,24,17.31c.07-.11.08-.11,0-.25q-2.55-5.32-5.09-10.65l-1-2v10A3.1,3.1,0,0,1,19.55,18a3.14,3.14,0,1,1-4.46-3.56v-10l-1,2.17L9,17.07c0,.1-.06.12,0,.26a17.48,17.48,0,0,1,3.23,7.57q.11.69.18,1.38Z"/><path class="cls-5" d="M23.16,32.72H9.85V28.25H23.16Zm-12.31-1H22.16V29.25H10.85Z"/><path class="cls-5" d="M16.5,18.55a1.35,1.35,0,0,1-1-.41,1.38,1.38,0,0,1-.4-1,1.35,1.35,0,0,1,1.37-1.34h0a1.37,1.37,0,0,1,1,.41,1.37,1.37,0,0,1-1,2.32h0Zm0-1.73a.35.35,0,0,0-.38.36.42.42,0,0,0,.1.26.44.44,0,0,0,.29.11h0a.35.35,0,0,0,.37-.36.35.35,0,0,0-.09-.26A.42.42,0,0,0,16.5,16.82Z"/></g></svg>