<svg id="Layer_1" data-name="Layer 1" xmlns="http://www.w3.org/2000/svg" xmlns:xlink="http://www.w3.org/1999/xlink" viewBox="0 0 33 33"><defs><style>.cls-1{fill:#f3f3f3;}.cls-2{fill:none;stroke-miterlimit:10;stroke:url(#linear-gradient);}</style><linearGradient id="linear-gradient" x1="1" y1="16.5" x2="32" y2="16.5" gradientUnits="userSpaceOnUse"><stop offset="0" stop-color="#fff" stop-opacity="0"/><stop offset="1" stop-color="#fff" stop-opacity="0.5"/></linearGradient></defs><path class="cls-1" d="M4.19,12.75H2.63a1.05,1.05,0,0,1-1-1.61c1.4-2.5,2.83-5,4.26-7.47a1.08,1.08,0,0,1,1-.56H26.06a1.17,1.17,0,0,1,1.08.64c1.38,2.42,2.77,4.82,4.13,7.24.55,1,.07,1.75-1,1.76h-1.4v.65q0,6.53,0,13.06a3.21,3.21,0,0,1-3.45,3.43H7.6a3.21,3.21,0,0,1-3.41-3.42V12.75ZM16.45,24h5.19c.88,0,1.29-.4,1.29-1.26q0-2.22,0-4.44A1.1,1.1,0,0,0,21.7,17H11.32a1.1,1.1,0,0,0-1.24,1.25v4.45c0,.86.41,1.26,1.29,1.26Z"/><path class="cls-2" d="M4.19,12.75H2.63a1.05,1.05,0,0,1-1-1.61c1.4-2.5,2.83-5,4.26-7.47a1.08,1.08,0,0,1,1-.56H26.06a1.17,1.17,0,0,1,1.08.64c1.38,2.42,2.77,4.82,4.13,7.24.55,1,.07,1.75-1,1.76h-1.4v.65q0,6.53,0,13.06a3.21,3.21,0,0,1-3.45,3.43H7.6a3.21,3.21,0,0,1-3.41-3.42V12.75ZM16.45,24h5.19c.88,0,1.29-.4,1.29-1.26q0-2.22,0-4.44A1.1,1.1,0,0,0,21.7,17H11.32a1.1,1.1,0,0,0-1.24,1.25v4.45c0,.86.41,1.26,1.29,1.26Z"/></svg>