<svg id="Layer_1" data-name="Layer 1" xmlns="http://www.w3.org/2000/svg" xmlns:xlink="http://www.w3.org/1999/xlink" viewBox="0 0 33 33"><defs><style>.cls-1{fill:url(#linear-gradient);}.cls-2{opacity:0.5;}.cls-3{fill:#f3f3f3;}</style><linearGradient id="linear-gradient" x1="1.5" y1="16.5" x2="31.5" y2="16.5" gradientUnits="userSpaceOnUse"><stop offset="0" stop-color="#fff" stop-opacity="0"/><stop offset="1" stop-color="#fff" stop-opacity="0.5"/></linearGradient></defs><path class="cls-1" d="M4.19,12.75H2.63a1.05,1.05,0,0,1-1-1.61c1.4-2.5,2.84-5,4.26-7.47a1.1,1.1,0,0,1,1-.56H26.06a1.16,1.16,0,0,1,1.08.64c1.38,2.42,2.77,4.82,4.14,7.24.54,1,.06,1.75-1.05,1.76h-1.4V26.46a3.22,3.22,0,0,1-3.45,3.43H7.6a3.22,3.22,0,0,1-3.41-3.42V12.75ZM16.45,24h5.19c.88,0,1.29-.4,1.3-1.26V18.3A1.11,1.11,0,0,0,21.7,17H11.32a1.1,1.1,0,0,0-1.24,1.25v4.45c0,.86.41,1.26,1.29,1.26Z"/><g class="cls-2"><path class="cls-3" d="M25.38,30.39H7.6a3.7,3.7,0,0,1-3.91-3.92V13.25H2.62a1.67,1.67,0,0,1-1.43-.81,1.57,1.57,0,0,1,0-1.54c1.14-2,2.31-4.06,3.47-6.08l.8-1.4A1.59,1.59,0,0,1,7,2.61H26.06a1.65,1.65,0,0,1,1.52.9l1.64,2.87,2.49,4.36a1.72,1.72,0,0,1,.1,1.73,1.74,1.74,0,0,1-1.57.78h-.91V26.46A3.73,3.73,0,0,1,25.38,30.39ZM4.19,12.25h.5V26.47A2.73,2.73,0,0,0,7.6,29.39H25.38a2.73,2.73,0,0,0,2.95-2.93V12.25h1.9A.8.8,0,0,0,31,12a.76.76,0,0,0-.11-.73L28.35,6.87,26.71,4a.66.66,0,0,0-.65-.39H7a.59.59,0,0,0-.59.31l-.81,1.4c-1.15,2-2.31,4-3.45,6.07a.54.54,0,0,0,0,.56.68.68,0,0,0,.59.3H4.19ZM17.94,24.5H11.37a1.61,1.61,0,0,1-1.79-1.76V18.29a1.6,1.6,0,0,1,1.74-1.75H21.7a1.6,1.6,0,0,1,1.74,1.76v4.44a1.61,1.61,0,0,1-1.8,1.76Zm-1.49-1h5.19c.61,0,.79-.18.8-.76V18.3c0-.57-.19-.76-.74-.76H11.32c-.55,0-.74.19-.74.76v4.43c0,.59.19.77.79.77h5.08Z"/></g></svg>