<svg id="Layer_1" data-name="Layer 1" xmlns="http://www.w3.org/2000/svg" xmlns:xlink="http://www.w3.org/1999/xlink" viewBox="0 0 120 120"><defs><style>.cls-1{fill:url(#linear-gradient);}.cls-2{fill:#cb74af;}.cls-3,.cls-4,.cls-5,.cls-6{fill:none;stroke-miterlimit:10;}.cls-3{stroke:url(#linear-gradient-2);}.cls-4{stroke:url(#linear-gradient-3);}.cls-5{stroke:url(#linear-gradient-4);}.cls-6{stroke:url(#linear-gradient-5);}</style><linearGradient id="linear-gradient" x1="113.49" y1="112.67" x2="8.9" y2="9.68" gradientUnits="userSpaceOnUse"><stop offset="0" stop-color="#fff" stop-opacity="0"/><stop offset="1" stop-color="#fff" stop-opacity="0.5"/></linearGradient><linearGradient id="linear-gradient-2" x1="0.89" y1="60" x2="119.11" y2="60" xlink:href="#linear-gradient"/><linearGradient id="linear-gradient-3" x1="18.6" y1="60.97" x2="63.38" y2="60.97" xlink:href="#linear-gradient"/><linearGradient id="linear-gradient-4" x1="66.23" y1="60.55" x2="101.54" y2="60.55" xlink:href="#linear-gradient"/><linearGradient id="linear-gradient-5" x1="75.21" y1="68.77" x2="90.65" y2="68.77" xlink:href="#linear-gradient"/></defs><path class="cls-1" d="M60,116.64q-18.75,0-37.49,0c-10.1,0-17.79-5.84-20.5-15.55a18.75,18.75,0,0,1-.62-5q0-36.12,0-72.25A20.35,20.35,0,0,1,21.81,3.38q38.19-.06,76.36,0a20.36,20.36,0,0,1,20.41,20.46q.06,36.12,0,72.24a20.38,20.38,0,0,1-20.51,20.56C85.39,116.67,72.69,116.64,60,116.64Z"/><path class="cls-2" d="M62.16,34.61C59,40.13,56,45.27,53,50.41c-1.63,2.8-3.22,5.63-4.91,8.39a2.36,2.36,0,0,0,0,2.81q7.08,11.86,14,23.79c1.13,1.92,1.1,1.94-1,1.94-2.54,0-5.08-.06-7.61,0a2.47,2.47,0,0,1-2.57-1.57c-3.24-6-6.56-12.06-9.86-18.08-.12-.22-.29-.42-.61-.87-1.61,3-3.15,5.89-4.68,8.77-1.83,3.44-3.69,6.85-5.44,10.32a2.31,2.31,0,0,1-2.45,1.42c-2.47-.08-4.95-.08-7.42,0-1.51,0-1.67-.35-.91-1.61,3.88-6.44,7.71-12.91,11.55-19.36A26.31,26.31,0,0,1,33,63.24c1.4-1.68,1-3.12,0-4.84-4.23-7.28-8.31-14.65-12.52-21.95-.85-1.47-.84-2,1-1.87,2.47.12,4.95.12,7.42,0a2.49,2.49,0,0,1,2.65,1.69c3,5.84,6,11.63,9,17.44.14.28.33.53.67,1.07,1.63-3.14,3.17-6.09,4.7-9.05,1.67-3.22,3.37-6.42,5-9.68a2.26,2.26,0,0,1,2.42-1.46C56.14,34.66,58.93,34.61,62.16,34.61Z"/><path class="cls-2" d="M100.83,83.36a17.51,17.51,0,0,1-.67-6.15q0-9.94,0-19.9c0-7.55,0-15.09,0-22.64,0-1.65-.5-2.14-2.1-2a54.3,54.3,0,0,1-6.25,0c-1.38-.07-1.78.41-1.75,1.77.07,4.55,0,9.1,0,13.65,0,1.05-.14,1.49-1.39,1.32a18.65,18.65,0,0,0-14.84,4.34c-6.51,5.34-8,12.42-6.76,20.35,1,5.91,4,10.44,9.68,12.69,8,3.18,15.77,1.57,23.43-1.41C101.27,85,101.1,84.11,100.83,83.36ZM90.13,69c0,3.45,0,6.89,0,10.33,0,1.1-.11,1.67-1.48,1.9a11,11,0,0,1-12.73-9.33,15.13,15.13,0,0,1,2.64-11.76A9.6,9.6,0,0,1,88.7,56.42a1.56,1.56,0,0,1,1.45,1.85C90.1,61.85,90.13,65.42,90.13,69Z"/><path class="cls-3" d="M60,116.64q-18.75,0-37.49,0c-10.1,0-17.79-5.84-20.5-15.55a18.75,18.75,0,0,1-.62-5q0-36.12,0-72.25A20.35,20.35,0,0,1,21.81,3.38q38.19-.06,76.36,0a20.36,20.36,0,0,1,20.41,20.46q.06,36.12,0,72.24a20.38,20.38,0,0,1-20.51,20.56C85.39,116.67,72.69,116.64,60,116.64Z"/><path class="cls-4" d="M62.16,34.61C59,40.13,56,45.27,53,50.41c-1.63,2.8-3.22,5.63-4.91,8.39a2.36,2.36,0,0,0,0,2.81q7.08,11.86,14,23.79c1.13,1.92,1.1,1.94-1,1.94-2.54,0-5.08-.06-7.61,0a2.47,2.47,0,0,1-2.57-1.57c-3.24-6-6.56-12.06-9.86-18.08-.12-.22-.29-.42-.61-.87-1.61,3-3.15,5.89-4.68,8.77-1.83,3.44-3.69,6.85-5.44,10.32a2.31,2.31,0,0,1-2.45,1.42c-2.47-.08-4.95-.08-7.42,0-1.51,0-1.67-.35-.91-1.61,3.88-6.44,7.71-12.91,11.55-19.36A26.31,26.31,0,0,1,33,63.24c1.4-1.68,1-3.12,0-4.84-4.23-7.28-8.31-14.65-12.52-21.95-.85-1.47-.84-2,1-1.87,2.47.12,4.95.12,7.42,0a2.49,2.49,0,0,1,2.65,1.69c3,5.84,6,11.63,9,17.44.14.28.33.53.67,1.07,1.63-3.14,3.17-6.09,4.7-9.05,1.67-3.22,3.37-6.42,5-9.68a2.26,2.26,0,0,1,2.42-1.46C56.14,34.66,58.93,34.61,62.16,34.61Z"/><path class="cls-5" d="M100.16,57.31q0,9.94,0,19.9a17.51,17.51,0,0,0,.67,6.15c.27.75.44,1.59-.57,2-7.66,3-15.47,4.59-23.43,1.41C71.18,84.5,68.11,80,67.15,74.06c-1.29-7.93.25-15,6.76-20.35a18.65,18.65,0,0,1,14.84-4.34c1.25.17,1.4-.27,1.39-1.32,0-4.55,0-9.1,0-13.65,0-1.36.37-1.84,1.75-1.77a54.3,54.3,0,0,0,6.25,0c1.6-.1,2.12.39,2.1,2C100.11,42.22,100.16,49.76,100.16,57.31Z"/><path class="cls-6" d="M90.13,69c0,3.45,0,6.89,0,10.33,0,1.1-.11,1.67-1.48,1.9a11,11,0,0,1-12.73-9.33,15.13,15.13,0,0,1,2.64-11.76A9.6,9.6,0,0,1,88.7,56.42a1.56,1.56,0,0,1,1.45,1.85C90.1,61.85,90.13,65.42,90.13,69Z"/></svg>